<svg width="21" height="21" viewBox="0 0 21 21" fill="none" xmlns="http://www.w3.org/2000/svg">
<circle cx="10.5" cy="10.5" r="10.5" fill="#ACDBFD"/>
<path d="M2.33325 12.8217C2.33325 12.1126 2.55528 11.4752 2.99934 10.9237C3.4434 10.3722 4.00922 10.0141 4.70396 9.85649C4.89018 9.01851 5.31275 8.32377 5.97884 7.79376C6.64493 7.25659 7.41129 6.99159 8.28509 6.99159C9.13023 6.99159 9.88943 7.24943 10.5484 7.77228C11.2144 8.29512 11.6442 8.96121 11.8376 9.77771H12.0309C12.8761 9.77771 13.5923 10.0714 14.1868 10.6658C14.7813 11.2603 15.0821 11.9765 15.0821 12.8145C15.0821 13.6597 14.7813 14.3759 14.1868 14.9703C13.5923 15.5648 12.8761 15.8656 12.0309 15.8656H5.39154C4.97612 15.8656 4.5822 15.7868 4.20976 15.6221C3.83733 15.4574 3.5007 15.2568 3.22853 14.9847C2.95637 14.7125 2.7415 14.383 2.57677 14.0106C2.41204 13.6382 2.33325 13.2299 2.33325 12.8217ZM3.37178 12.8217C3.37178 13.366 3.57232 13.8387 3.95908 14.2255C4.34585 14.6122 4.82572 14.8128 5.38437 14.8128H12.0309C12.5824 14.8128 13.0623 14.6194 13.4562 14.2255C13.8502 13.8315 14.0507 13.366 14.0507 12.8217C14.0507 12.2773 13.8573 11.8046 13.4562 11.4179C13.0623 11.0311 12.5896 10.8306 12.0309 10.8306H11.0354C10.9638 10.8306 10.928 10.7947 10.928 10.7231L10.8778 10.3722C10.8062 9.69892 10.5197 9.13311 10.0255 8.68905C9.53132 8.24499 8.94401 8.02296 8.27076 8.02296C7.59751 8.02296 7.01021 8.24499 6.50885 8.69621C6.00749 9.14027 5.72816 9.70609 5.6637 10.3722L5.61357 10.673C5.61357 10.7446 5.57775 10.7804 5.49897 10.7804L5.17667 10.8306C4.66099 10.8735 4.23125 11.0884 3.8803 11.468C3.55084 11.8476 3.37178 12.2988 3.37178 12.8217ZM9.71038 6.57618C9.63875 6.64064 9.65308 6.69078 9.76051 6.72659C10.0685 6.86267 10.3263 6.99159 10.534 7.12051C10.6128 7.142 10.6701 7.13484 10.6916 7.09903C11.1285 6.69078 11.6299 6.48307 12.21 6.48307C12.7901 6.48307 13.2843 6.67645 13.7141 7.06321C14.1367 7.44998 14.373 7.92985 14.4231 8.49567L14.4876 8.95405H15.5046C15.9702 8.95405 16.3713 9.11878 16.7079 9.45541C17.0445 9.79203 17.2093 10.186 17.2093 10.6443C17.2093 11.0741 17.0589 11.4465 16.7652 11.7688C16.4715 12.0911 16.1063 12.2702 15.6694 12.3203C15.5978 12.3203 15.5619 12.3561 15.5619 12.4349V13.2442C15.5619 13.323 15.5978 13.3588 15.6694 13.3588C16.3928 13.3159 17.0016 13.0294 17.4957 12.5065C17.9899 11.9837 18.2406 11.3606 18.2406 10.6443C18.2406 9.88514 17.9756 9.24054 17.4385 8.71053C16.9013 8.17336 16.2567 7.90836 15.5046 7.90836H15.3972C15.211 7.19213 14.8171 6.60483 14.2154 6.13928C13.621 5.67374 12.9477 5.44454 12.21 5.44454C11.2073 5.43738 10.3693 5.81698 9.71038 6.57618Z" fill="black"/>
</svg>
