<svg width="21" height="21" viewBox="0 0 21 21" fill="none" xmlns="http://www.w3.org/2000/svg">
<circle cx="10.5" cy="10.5" r="10.5" fill="#ACDBFD"/>
<path d="M2.33325 13.8702C2.33325 14.4028 2.46345 14.894 2.72383 15.3437C2.98422 15.7935 3.3393 16.1486 3.78906 16.409C4.23882 16.6693 4.72409 16.7995 5.25079 16.7995H11.6599C12.1866 16.7995 12.6778 16.6693 13.1275 16.409C13.5773 16.1486 13.9383 15.7935 14.1987 15.3437C14.4591 14.894 14.5952 14.4028 14.5952 13.8702C14.5952 13.4796 14.5123 13.0831 14.3466 12.6866C14.7964 12.1421 15.0213 11.4852 15.0213 10.7337C15.0213 10.3135 14.9384 9.91108 14.7786 9.52641C14.6189 9.14175 14.394 8.81626 14.1158 8.53812C13.8377 8.25998 13.5122 8.0351 13.1275 7.87531C12.7429 7.70961 12.3405 7.63268 11.9203 7.63268C11.0444 7.63268 10.281 7.97592 9.62413 8.6624C9.16845 8.40201 8.63584 8.27181 8.02629 8.27181C7.19187 8.27181 6.45804 8.5322 5.81891 9.04706C5.17977 9.56192 4.76552 10.2247 4.58798 11.0296C3.92517 11.1834 3.38664 11.5208 2.96647 12.0534C2.5463 12.586 2.33325 13.1896 2.33325 13.8702ZM3.34522 13.8702C3.34522 13.3731 3.51092 12.947 3.84232 12.586C4.17373 12.225 4.58798 12.0179 5.08509 11.9587L5.38098 11.9409C5.452 11.9409 5.49342 11.9054 5.49342 11.8344L5.53485 11.5148C5.6177 10.8757 5.89584 10.3372 6.36927 9.91108C6.84271 9.47907 7.39899 9.26602 8.03221 9.26602C8.68318 9.26602 9.2513 9.48499 9.73065 9.917C10.2159 10.349 10.4822 10.8816 10.5414 11.5208L10.5828 11.864C10.5947 11.9291 10.6361 11.9646 10.7071 11.9646H11.6599C12.1807 11.9646 12.6304 12.154 13.0092 12.5327C13.3879 12.9115 13.5773 13.3553 13.5773 13.8761C13.5773 14.4146 13.3879 14.8703 13.0151 15.249C12.6423 15.6278 12.1866 15.8172 11.6658 15.8172H5.25079C4.73001 15.8172 4.28617 15.6278 3.90742 15.2431C3.53459 14.8585 3.34522 14.4028 3.34522 13.8702ZM7.31022 6.60888C7.31022 6.75091 7.35757 6.87518 7.45225 6.98171L7.84284 7.36045C7.99078 7.47289 8.11506 7.52024 8.22158 7.5084C8.34586 7.5084 8.45238 7.45514 8.54707 7.35453C8.64176 7.25393 8.6891 7.12965 8.6891 6.98762C8.6891 6.84559 8.63584 6.72723 8.53523 6.63847L8.18608 6.24788C8.07955 6.1532 7.9612 6.10585 7.82508 6.10585C7.68305 6.10585 7.55878 6.1532 7.45817 6.2538C7.35757 6.34849 7.31022 6.46685 7.31022 6.60888ZM10.4704 9.23052C10.8787 8.83402 11.364 8.63872 11.9203 8.63872C12.5062 8.63872 13.0033 8.83993 13.4116 9.24827C13.8199 9.65661 14.0271 10.1478 14.0271 10.7337C14.0271 11.1006 13.9265 11.4675 13.7253 11.8226C13.1512 11.2544 12.4647 10.9704 11.6599 10.9704H11.4705C11.3226 10.3253 10.9912 9.74538 10.4704 9.23052ZM11.435 6.10585C11.435 6.25972 11.4824 6.37808 11.5711 6.47276C11.6599 6.56745 11.7783 6.60888 11.9203 6.60888C12.0742 6.60888 12.1925 6.56153 12.2872 6.47276C12.3819 6.37808 12.4233 6.25972 12.4233 6.10585V4.89268C12.4233 4.75065 12.376 4.63821 12.2813 4.54352C12.1866 4.44884 12.0682 4.40741 11.9203 4.40741C11.7783 4.40741 11.6658 4.45475 11.5711 4.54352C11.4764 4.63229 11.435 4.75065 11.435 4.89268V6.10585ZM14.7017 7.46106C14.7017 7.61492 14.7431 7.73328 14.8319 7.82797C14.9562 7.92266 15.0805 7.97 15.1988 7.97C15.3053 7.97 15.4237 7.92266 15.548 7.82797L16.3942 6.98171C16.4889 6.87518 16.5363 6.75091 16.5363 6.60296C16.5363 6.46093 16.4889 6.34257 16.3942 6.24788C16.2995 6.1532 16.1812 6.10585 16.0451 6.10585C15.903 6.10585 15.7906 6.1532 15.7018 6.24788L14.8319 7.09415C14.7431 7.20659 14.7017 7.32495 14.7017 7.46106ZM15.1692 14.4679C15.1692 14.6099 15.2166 14.7342 15.3172 14.8407L15.7018 15.2135C15.7906 15.3082 15.903 15.3556 16.0451 15.3556C16.1871 15.3556 16.3055 15.3082 16.4002 15.2076C16.4948 15.107 16.5422 14.9887 16.5422 14.8407C16.5422 14.7105 16.4948 14.5922 16.4002 14.4975L16.0155 14.1128C15.9208 14.0181 15.8084 13.9708 15.6782 13.9708C15.5361 13.9708 15.4178 14.0181 15.3231 14.1128C15.2225 14.2075 15.1692 14.3258 15.1692 14.4679ZM16.0392 10.7337C16.0392 10.8698 16.0924 10.9822 16.193 11.0769C16.2877 11.1716 16.412 11.2189 16.554 11.2189H17.7613C17.8974 11.2189 18.0098 11.1716 18.1045 11.0828C18.1992 10.9941 18.2406 10.8757 18.2406 10.7337C18.2406 10.5916 18.1933 10.4733 18.1045 10.3786C18.0157 10.2839 17.8974 10.2306 17.7613 10.2306H16.554C16.412 10.2306 16.2936 10.278 16.193 10.3786C16.0865 10.4792 16.0392 10.5976 16.0392 10.7337Z" fill="black"/>
</svg>
