<svg width="38" height="38" viewBox="0 0 38 38" fill="none" xmlns="http://www.w3.org/2000/svg">
<circle cx="19" cy="15" r="14.75" fill="#ffffff" stroke="blue" stroke-width="1.5"/>
<path d="M24.3317 10.7381C24.233 10.5519 24.0953 10.3983 23.9316 10.2917C23.768 10.1852 23.5838 10.1293 23.3965 10.1293C23.2092 10.1293 23.025 10.1852 22.8613 10.2917C22.6976 10.3983 22.56 10.5519 22.4613 10.7381L21.3611 12.8354L17.7413 5.63009C17.6439 5.43809 17.5055 5.27904 17.3396 5.16856C17.1737 5.05809 16.9861 5 16.7951 5C16.6042 5 16.4166 5.05809 16.2507 5.16856C16.0848 5.27904 15.9464 5.43809 15.849 5.63009L8.14741 21.07C8.05112 21.265 8.00029 21.4862 8 21.7114C7.99971 21.9366 8.04996 22.158 8.14575 22.3533C8.24153 22.5487 8.37948 22.7112 8.54581 22.8247C8.71215 22.9382 8.90104 22.9986 9.0936 23H28.8976C29.0942 23.0005 29.2873 22.9393 29.4568 22.8229C29.6263 22.7065 29.7661 22.5392 29.8615 22.3382C29.957 22.1372 30.0047 21.91 29.9996 21.6802C29.9946 21.4504 29.937 21.2264 29.8328 21.0314L24.3317 10.7381ZM17.2902 20.4267H11.008L16.7951 8.84674L20.0298 15.28L18.6545 17.8534L17.2902 20.4267ZM19.8758 20.4267L21.5151 17.3773L22.2963 16.0134L23.3965 13.8518L26.9172 20.4267H19.8758Z" fill="black"/>
</svg>
