<svg width="21" height="22" viewBox="0 0 21 22" fill="none" xmlns="http://www.w3.org/2000/svg">
<path d="M19.8295 5.37647L19.8416 5.36443L15.975 1.52525C15.6234 1.17624 15.0416 1.17624 14.6901 1.52525C14.3386 1.87427 14.3386 2.45195 14.6901 2.80097L16.6053 4.70251C15.3325 5.18391 14.4719 6.47166 14.6901 7.964C14.8841 9.28786 16.0234 10.359 17.3568 10.5034C17.9265 10.5636 18.4234 10.4673 18.8962 10.2627V18.94C18.8962 19.6019 18.3507 20.1435 17.6841 20.1435C17.0174 20.1435 16.4719 19.6019 16.4719 18.94V13.5242C16.4719 12.2003 15.381 11.1172 14.0477 11.1172H12.8356V2.69265C12.8356 1.3688 11.7447 0.285645 10.4113 0.285645H3.1386C1.80526 0.285645 0.714355 1.3688 0.714355 2.69265V20.7452C0.714355 21.4072 1.25981 21.9487 1.92648 21.9487H11.6234C12.2901 21.9487 12.8356 21.4072 12.8356 20.7452V12.9224H14.6537V18.7715C14.6537 20.3481 15.7931 21.7802 17.3689 21.9367C19.1871 22.1172 20.7144 20.7091 20.7144 18.94V7.50667C20.7144 6.67625 20.375 5.91805 19.8295 5.37647ZM10.4113 8.71018H3.1386V3.89616C3.1386 3.23423 3.68405 2.69265 4.35072 2.69265H9.1992C9.86587 2.69265 10.4113 3.23423 10.4113 3.89616V8.71018ZM17.6841 8.71018C17.0174 8.71018 16.4719 8.1686 16.4719 7.50667C16.4719 6.84475 17.0174 6.30317 17.6841 6.30317C18.3507 6.30317 18.8962 6.84475 18.8962 7.50667C18.8962 8.1686 18.3507 8.71018 17.6841 8.71018Z" fill="black"/>
</svg>
