<svg width="38" height="38" viewBox="0 0 38 38" fill="none" xmlns="http://www.w3.org/2000/svg">
<g filter="url(#filter0_d_172_721)">
<circle cx="19" cy="15" r="14.75" fill="#F0F8FF" stroke="#3E3FFF" stroke-width="0.5"/>
<path d="M28.8295 9.37647L28.8416 9.36443L24.975 5.52525C24.6234 5.17624 24.0416 5.17624 23.6901 5.52525C23.3386 5.87427 23.3386 6.45195 23.6901 6.80097L25.6053 8.70251C24.3325 9.18391 23.4719 10.4717 23.6901 11.964C23.8841 13.2879 25.0234 14.359 26.3568 14.5034C26.9265 14.5636 27.4234 14.4673 27.8962 14.2627V22.94C27.8962 23.6019 27.3507 24.1435 26.6841 24.1435C26.0174 24.1435 25.4719 23.6019 25.4719 22.94V17.5242C25.4719 16.2003 24.381 15.1172 23.0477 15.1172H21.8356V6.69265C21.8356 5.3688 20.7447 4.28564 19.4113 4.28564H12.1386C10.8053 4.28564 9.71436 5.3688 9.71436 6.69265V24.7452C9.71436 25.4072 10.2598 25.9487 10.9265 25.9487H20.6234C21.2901 25.9487 21.8356 25.4072 21.8356 24.7452V16.9224H23.6537V22.7715C23.6537 24.3481 24.7931 25.7802 26.3689 25.9367C28.1871 26.1172 29.7144 24.7091 29.7144 22.94V11.5067C29.7144 10.6763 29.375 9.91805 28.8295 9.37647ZM19.4113 12.7102H12.1386V7.89616C12.1386 7.23423 12.6841 6.69265 13.3507 6.69265H18.1992C18.8659 6.69265 19.4113 7.23423 19.4113 7.89616V12.7102ZM26.6841 12.7102C26.0174 12.7102 25.4719 12.1686 25.4719 11.5067C25.4719 10.8447 26.0174 10.3032 26.6841 10.3032C27.3507 10.3032 27.8962 10.8447 27.8962 11.5067C27.8962 12.1686 27.3507 12.7102 26.6841 12.7102Z" fill="black"/>
</g>
<defs>
<filter id="filter0_d_172_721" x="0" y="0" width="38" height="38" filterUnits="userSpaceOnUse" color-interpolation-filters="sRGB">
<feFlood flood-opacity="0" result="BackgroundImageFix"/>
<feColorMatrix in="SourceAlpha" type="matrix" values="0 0 0 0 0 0 0 0 0 0 0 0 0 0 0 0 0 0 127 0" result="hardAlpha"/>
<feOffset dy="4"/>
<feGaussianBlur stdDeviation="2"/>
<feComposite in2="hardAlpha" operator="out"/>
<feColorMatrix type="matrix" values="0 0 0 0 0 0 0 0 0 0 0 0 0 0 0 0 0 0 0.75 0"/>
<feBlend mode="normal" in2="BackgroundImageFix" result="effect1_dropShadow_172_721"/>
<feBlend mode="normal" in="SourceGraphic" in2="effect1_dropShadow_172_721" result="shape"/>
</filter>
</defs>
</svg>
