<svg width="25" height="25" viewBox="0 0 25 25" fill="none" xmlns="http://www.w3.org/2000/svg">
<rect x="1.25" y="1.25" width="22.5" height="22.5" fill="white" stroke="#3E3FFF" stroke-width="1.5"/>
<path d="M20.1494 15.7381L17.7758 14.2471L20.1494 12.7563C20.2375 12.701 20.291 12.6042 20.291 12.5002C20.291 12.3962 20.2375 12.2994 20.1494 12.2441L17.7758 10.753L20.1493 9.26214C20.2374 9.20678 20.2909 9.11008 20.2909 9.00605C20.2909 8.90201 20.2374 8.80528 20.1493 8.74995L12.661 4.04633C12.5627 3.98456 12.4376 3.98456 12.3393 4.04633L4.85105 8.74995C4.76294 8.80532 4.70947 8.90201 4.70947 9.00605C4.70947 9.11008 4.76294 9.20682 4.85105 9.26214L7.22453 10.753L4.85113 12.2441C4.76302 12.2994 4.70959 12.3961 4.70959 12.5002C4.70959 12.6042 4.76306 12.7009 4.85117 12.7563L7.22457 14.247L4.85117 15.7381C4.76306 15.7935 4.70963 15.8902 4.70963 15.9942C4.70963 16.0983 4.7631 16.195 4.85121 16.2503L12.3393 20.9537C12.3885 20.9846 12.4443 21 12.5001 21C12.556 21 12.6118 20.9846 12.661 20.9537L20.1494 16.2503C20.2375 16.195 20.291 16.0982 20.291 15.9942C20.291 15.8902 20.2375 15.7934 20.1494 15.7381ZM5.58046 9.00605L12.5002 4.65957L19.4199 9.00605L12.5002 13.3525L5.58046 9.00605ZM5.58054 12.5001L7.79305 11.1101L12.3393 13.9658C12.3884 13.9966 12.4443 14.0121 12.5001 14.0121C12.556 14.0121 12.6118 13.9966 12.661 13.9658L17.2071 11.1102L19.4199 12.5001L12.5001 16.8464L5.58054 12.5001ZM12.5001 20.3404L5.58054 15.9942L7.79309 14.6041L12.3392 17.4596C12.3884 17.4905 12.4443 17.5059 12.5001 17.5059C12.5559 17.5059 12.6118 17.4905 12.661 17.4596L17.2072 14.6042L19.42 15.9942L12.5001 20.3404Z" fill="black"/>
</svg>
