<svg width="22" height="18" viewBox="0 0 22 18" fill="none" xmlns="http://www.w3.org/2000/svg">
<path d="M16.3317 5.73813C16.233 5.55193 16.0953 5.39828 15.9316 5.29173C15.768 5.18518 15.5838 5.12926 15.3965 5.12926C15.2092 5.12926 15.025 5.18518 14.8613 5.29173C14.6976 5.39828 14.56 5.55193 14.4613 5.73813L13.3611 7.83538L9.74134 0.630086C9.64392 0.438087 9.50546 0.279036 9.33957 0.168564C9.17367 0.0580914 8.98605 0 8.79515 0C8.60424 0 8.41663 0.0580914 8.25073 0.168564C8.08484 0.279036 7.94638 0.438087 7.84896 0.630086L0.147413 16.07C0.0511249 16.265 0.000293864 16.4862 1.27035e-06 16.7114C-0.000291323 16.9366 0.0499646 17.158 0.145746 17.3533C0.241527 17.5487 0.379479 17.7112 0.545813 17.8247C0.712147 17.9382 0.901037 17.9986 1.0936 18H20.8976C21.0942 18.0005 21.2873 17.9393 21.4568 17.8229C21.6263 17.7065 21.7661 17.5392 21.8615 17.3382C21.957 17.1372 22.0047 16.91 21.9996 16.6802C21.9946 16.4504 21.937 16.2264 21.8328 16.0314L16.3317 5.73813ZM9.29025 15.4267H3.00799L8.79515 3.84674L12.0298 10.28L10.6545 12.8534L9.29025 15.4267ZM11.8758 15.4267L13.5151 12.3773L14.2963 11.0134L15.3965 8.85184L18.9172 15.4267H11.8758Z" fill="black"/>
</svg>
