<svg width="21" height="21" viewBox="0 0 21 21" fill="none" xmlns="http://www.w3.org/2000/svg">
<circle cx="10.5" cy="10.5" r="10.5" fill="#ACDBFD"/>
<path d="M2.33325 10.1187C2.33325 9.23629 2.6095 8.45358 3.162 7.76296C3.7145 7.07233 4.4128 6.63494 5.25689 6.43542C5.49477 5.39181 6.0396 4.53237 6.87602 3.85709C7.71245 3.18182 8.67164 2.85185 9.75362 2.85185C10.8126 2.85185 11.7488 3.18182 12.5775 3.83407C13.4063 4.48633 13.9434 5.33042 14.189 6.35869H14.4345C15.1175 6.35869 15.7544 6.52751 16.3376 6.85747C16.9208 7.18744 17.3889 7.64785 17.7265 8.22337C18.0641 8.79889 18.2406 9.4358 18.2406 10.1187C18.2406 10.794 18.0795 11.4156 17.7572 11.9911C17.4349 12.5666 16.9898 13.027 16.4297 13.3724C15.8695 13.7177 15.2556 13.9018 14.588 13.9172C14.4882 13.9172 14.4345 13.8711 14.4345 13.7867V12.7661C14.4345 12.6741 14.4882 12.628 14.588 12.628C15.2402 12.5973 15.8004 12.3364 16.2608 11.8453C16.7213 11.3542 16.9515 10.7787 16.9515 10.1111C16.9515 9.44347 16.6982 8.86795 16.1994 8.37684C15.7007 7.88573 15.1098 7.64018 14.4268 7.64018H13.1914C13.0993 7.64018 13.0533 7.59414 13.0533 7.50973L12.9919 7.06466C12.9075 6.23591 12.5468 5.53761 11.9253 4.98511C11.296 4.42494 10.5747 4.14869 9.73827 4.14869C8.90185 4.14869 8.16519 4.42494 7.5513 4.98511C6.92974 5.54529 6.58443 6.23591 6.50769 7.06466L6.45397 7.47136C6.45397 7.56344 6.40026 7.61716 6.3005 7.61716L5.8938 7.64018C5.25689 7.71691 4.71974 7.99316 4.28235 8.46125C3.84495 8.92934 3.63009 9.48184 3.63009 10.1187C3.63009 10.7864 3.8603 11.3619 4.32071 11.853C4.78113 12.3441 5.3413 12.605 5.99356 12.6357C6.07797 12.6357 6.12401 12.6817 6.12401 12.7738V13.7944C6.12401 13.8788 6.07797 13.9249 5.99356 13.9249C4.9653 13.8788 4.09818 13.4875 3.38454 12.7508C2.67089 12.0141 2.33325 11.1393 2.33325 10.1187ZM6.43863 15.2524C6.43863 15.2217 6.4463 15.168 6.46932 15.0989L7.72012 10.6712C7.76616 10.5255 7.85057 10.4103 7.96567 10.3336C8.08078 10.2569 8.20356 10.2185 8.31866 10.2185C8.37237 10.2185 8.43376 10.2262 8.50283 10.2415C8.68699 10.2722 8.82512 10.372 8.9172 10.5255C9.00928 10.6789 9.0323 10.8477 8.97859 11.0396L7.72779 15.4366C7.63571 15.7665 7.42085 15.9277 7.09856 15.9277C7.06786 15.9277 7.04484 15.92 7.01415 15.9123C6.96811 15.897 6.94509 15.8893 6.93741 15.8893C6.76859 15.8433 6.64581 15.7588 6.5614 15.6361C6.477 15.5056 6.43863 15.3828 6.43863 15.2524ZM8.44911 17.4087L10.3215 10.6789C10.3522 10.5331 10.4289 10.418 10.5517 10.3413C10.6745 10.2645 10.7972 10.2262 10.9277 10.2262C10.9967 10.2262 11.0658 10.2339 11.1349 10.2492C11.3037 10.2952 11.4265 10.395 11.5109 10.5485C11.5953 10.7019 11.6106 10.8631 11.5646 11.0396L9.69991 17.777C9.66921 17.9075 9.60015 18.0149 9.47737 18.107C9.35459 18.199 9.23182 18.2451 9.08602 18.2451C9.01696 18.2451 8.94789 18.2297 8.89418 18.2067C8.74071 18.1684 8.61026 18.0686 8.49515 17.9075C8.41074 17.7693 8.3954 17.6082 8.44911 17.4087ZM11.6183 15.2677C11.6183 15.237 11.626 15.1833 11.649 15.0912L12.8998 10.6636C12.9458 10.5178 13.0226 10.4027 13.13 10.3259C13.2451 10.2492 13.3602 10.2108 13.483 10.2108C13.5444 10.2108 13.6134 10.2185 13.6825 10.2339C13.8437 10.2799 13.9588 10.3566 14.0355 10.4717C14.1122 10.5868 14.1506 10.7096 14.1506 10.8324C14.1506 10.8554 14.1429 10.8938 14.1352 10.9398C14.1276 10.9859 14.1199 11.0166 14.1199 11.0319L12.8691 15.4289C12.8384 15.5747 12.7693 15.6975 12.6542 15.7819C12.5391 15.8663 12.4087 15.9123 12.2629 15.9123L12.0787 15.8739C11.9253 15.8279 11.8101 15.7512 11.7257 15.6284C11.6567 15.5133 11.6183 15.3905 11.6183 15.2677Z" fill="black"/>
</svg>
