<svg width="21" height="26" viewBox="0 0 21 26" fill="none" xmlns="http://www.w3.org/2000/svg">
<path d="M14.3117 24.2318C14.5987 24.0761 14.8143 23.8165 14.9114 23.5064C14.9593 23.3585 14.9756 23.2024 14.9594 23.0478C14.9431 22.8928 14.8943 22.743 14.8164 22.6077L3.2001 2.3728C3.15191 2.28197 3.07892 2.20697 2.99007 2.15593C2.90137 2.10497 2.80025 2.07983 2.69828 2.08292C2.60398 2.08294 2.51101 2.10682 2.42831 2.1526C2.34358 2.1995 2.2724 2.26789 2.22245 2.35131L2.22244 2.3513L2.22179 2.3524L1.89999 2.89607C1.8999 2.89621 1.89982 2.89635 1.89973 2.89649C1.66921 3.28273 1.53048 3.7154 1.49417 4.16215C1.45788 4.60878 1.52492 5.05759 1.69015 5.47495C1.69026 5.47522 1.69036 5.4755 1.69047 5.47577L4.24764 12.061C4.24765 12.061 4.24766 12.061 4.24767 12.0611C4.41693 12.4992 4.68921 12.8914 5.04187 13.2059C5.39453 13.5204 5.81762 13.7482 6.27645 13.8712L6.27863 13.8718L7.09356 14.0824C7.09368 14.0824 7.09379 14.0824 7.09391 14.0825C7.13114 14.0923 7.16548 14.1097 7.19473 14.1334L7.35182 13.9389L7.19473 14.1334C7.22362 14.1567 7.24683 14.1855 7.26312 14.2176C8.84557 17.5211 10.6397 20.7229 12.6347 23.8037C12.8049 24.0751 13.0746 24.2702 13.3865 24.3496C13.6986 24.4291 14.03 24.3871 14.3117 24.2318ZM14.3117 24.2318C14.3114 24.2319 14.3111 24.2321 14.3108 24.2322L14.1918 24.0124L14.3128 24.2312C14.3124 24.2314 14.312 24.2316 14.3117 24.2318ZM12.1967 24.0739L12.1959 24.0725C10.227 21.0357 8.45492 17.8803 6.89015 14.6251L6.83867 14.518L6.7231 14.4903L6.13623 14.3496C5.59809 14.2047 5.10266 13.9376 4.68997 13.5702C4.27647 13.2021 3.95773 12.7437 3.75924 12.2327L1.20266 5.64686L1.20267 5.64686L1.20216 5.64557C1.01053 5.1599 0.933165 4.63823 0.975708 4.11937C1.01825 3.60052 1.17963 3.09754 1.44808 2.64794L1.44808 2.64795L1.4486 2.64706L1.77187 2.10056C1.77193 2.10046 1.77199 2.10036 1.77205 2.10025C1.86612 1.94244 2.0012 1.81111 2.16418 1.71994C2.32729 1.62868 2.51237 1.58101 2.70074 1.58205V1.58205H2.70211H2.71771C2.90891 1.58322 3.09611 1.63415 3.26016 1.7293C3.42437 1.82454 3.55927 1.96052 3.65155 2.12286L3.65155 2.12286L3.65209 2.12379L15.271 22.3606L15.2711 22.3608C15.3825 22.5544 15.4519 22.7682 15.4752 22.9889C15.4984 23.2096 15.475 23.4327 15.4064 23.6443L15.4057 23.6464C15.2706 24.0761 14.9725 24.4401 14.5711 24.6624L14.57 24.6631C14.3036 24.8125 14.0019 24.8917 13.6944 24.8927C13.3943 24.8906 13.0997 24.8143 12.838 24.6712C12.576 24.5279 12.3555 24.3223 12.1967 24.0739Z" fill="#2B3344" stroke="black" stroke-width="0.5"/>
<path d="M9.66857 13.3797L9.67131 13.3796C9.71771 13.3797 9.76307 13.3678 9.80289 13.3456C9.84268 13.3235 9.87536 13.2918 9.89814 13.2543L9.90232 13.2474L9.90694 13.2408C10.736 12.0551 11.4322 11.0822 11.9171 10.4139L12.0509 10.2169L12.0553 10.2105L12.0554 10.2105C12.0754 10.183 12.0892 10.152 12.0961 10.1195C12.103 10.087 12.1031 10.0535 12.0961 10.021L12.0958 10.0195C12.0891 9.98671 12.0755 9.95536 12.0556 9.92743C12.0358 9.89948 12.0101 9.87549 11.9799 9.85718L11.8015 9.74926C11.6451 9.65894 11.508 9.539 11.3984 9.3961C11.2881 9.25241 11.2079 9.08841 11.1625 8.91354C11.1171 8.73867 11.1075 8.55662 11.1343 8.37801C11.1611 8.19955 11.2237 8.02829 11.3183 7.87416C11.3183 7.87404 11.3184 7.87393 11.3185 7.87381L15.2316 1.47368C15.2612 1.41805 15.2682 1.35396 15.2516 1.29386L15.4925 1.22714L15.2516 1.29385C15.2345 1.23227 15.1935 1.17819 15.1355 1.14396L15.2615 0.930163L15.1355 1.14396C15.0773 1.10966 15.0072 1.09848 14.9402 1.11341C14.8748 1.12798 14.8188 1.16596 14.7823 1.2182L10.87 7.61699C10.8699 7.61724 10.8697 7.61748 10.8696 7.61773C10.6402 7.9995 10.5565 8.44815 10.6327 8.88414C10.7089 9.32048 10.9407 9.71709 11.2879 10.0029L11.4687 10.1517L11.332 10.3418C10.8537 11.0073 10.2087 11.9067 9.45524 12.9832C9.42651 13.0254 9.41141 13.0744 9.41126 13.1242C9.41126 13.1243 9.41126 13.1244 9.41126 13.1244L9.41126 13.1355M9.66857 13.3797L9.16126 13.1359M9.66857 13.3797C9.63432 13.38 9.60044 13.3737 9.56893 13.3612C9.53742 13.3487 9.50905 13.3304 9.48533 13.3074L9.31143 13.487M9.66857 13.3797L9.31143 13.487M9.41126 13.1355V13.1359H9.16126M9.41126 13.1355C9.41126 13.1354 9.41126 13.1353 9.41126 13.1352L9.16126 13.1359M9.41126 13.1355C9.41138 13.1671 9.41785 13.1985 9.43043 13.2279C9.44305 13.2574 9.46163 13.2844 9.48533 13.3074L9.31143 13.487M9.16126 13.1359C9.16143 13.2012 9.17479 13.2659 9.20057 13.3262C9.22634 13.3864 9.26402 13.4411 9.31143 13.487M5.14166 24.8926L5.13945 24.8926C4.81677 24.8934 4.50073 24.8047 4.22777 24.6373L4.2278 24.6372L4.2234 24.6346C3.83285 24.4058 3.54884 24.0385 3.42918 23.6106C3.30956 23.1829 3.36294 22.7263 3.57866 22.3358C4.73916 20.2403 6.12545 17.9693 7.58817 15.7629L7.3798 15.6248L7.58805 15.7631C7.62503 15.7074 7.68396 15.6672 7.75283 15.6529L7.70219 15.4081L7.75283 15.6529C7.82178 15.6387 7.89337 15.652 7.95155 15.6892C8.00957 15.7263 8.04889 15.7836 8.06261 15.8475C8.0763 15.9113 8.06378 15.9781 8.02693 16.0336L8.02684 16.0337C6.57257 18.2259 5.19272 20.4872 4.04534 22.5691L4.04506 22.5696C3.89166 22.8495 3.85423 23.1773 3.94109 23.4841C4.02767 23.7899 4.23058 24.0498 4.50603 24.2109C4.77821 24.3766 5.10513 24.4307 5.41687 24.3622C5.72905 24.2935 6.00258 24.107 6.17765 23.8413C7.15773 22.3885 8.19281 20.7378 9.25848 18.9295C9.29356 18.8762 9.3489 18.8367 9.41422 18.8207C9.48083 18.8044 9.55113 18.8143 9.60994 18.8476C9.6686 18.8809 9.7105 18.9344 9.72839 18.9958C9.74591 19.0558 9.73955 19.1202 9.71024 19.1762C8.6375 20.9954 7.59807 22.6549 6.61769 24.1087L6.61768 24.1087L6.61605 24.1112C6.45785 24.3519 6.23997 24.55 5.98219 24.6868C5.72439 24.8236 5.43527 24.8945 5.14166 24.8926ZM13.5009 11.0677L13.5017 11.066C13.5169 11.0343 13.539 11.0057 13.5667 10.9824C13.5944 10.959 13.6271 10.9415 13.6628 10.9311L13.6646 10.9306C13.6988 10.9204 13.735 10.9175 13.7706 10.9221C13.8062 10.9268 13.8401 10.9389 13.8701 10.9573L13.8719 10.9584L14.0485 11.065C14.2039 11.1591 14.3765 11.2218 14.5564 11.2496C14.7362 11.2775 14.9199 11.2701 15.0969 11.2277L15.0981 11.2274C15.2733 11.1846 15.4384 11.1079 15.5836 11.0016C15.7285 10.8955 15.8509 10.7619 15.9432 10.6085C15.9434 10.6082 15.9436 10.6079 15.9438 10.6076L19.856 4.20887C19.8925 4.15663 19.9486 4.11865 20.014 4.10408C20.081 4.08916 20.151 4.10033 20.2092 4.13464L20.3362 3.9193L20.2092 4.13464C20.2672 4.16886 20.3083 4.22295 20.3253 4.28453L20.5663 4.21782L20.3253 4.28453C20.342 4.34462 20.335 4.40871 20.3053 4.46434L16.3947 10.8582L16.3942 10.859C16.2674 11.0683 16.0993 11.2511 15.8994 11.3967C15.6996 11.5423 15.4721 11.6476 15.2301 11.7065C14.8387 11.8009 14.427 11.7727 14.053 11.626L13.8411 11.5429L13.7385 11.746C13.1962 12.8198 12.3816 14.3601 11.4914 15.9978L11.4914 15.9978L11.49 16.0005C11.4688 16.0406 11.4364 16.075 11.3959 16.0992C11.3556 16.1233 11.309 16.1365 11.2612 16.1368C11.2175 16.1364 11.1748 16.1256 11.1368 16.1056L11.0204 16.3265L11.137 16.1057C11.076 16.0734 11.0318 16.0196 11.0126 15.9571C10.9935 15.8949 11.0002 15.8278 11.0316 15.7699C12.0617 13.883 12.9844 12.1243 13.5009 11.0677Z" fill="#2B3344" stroke="black" stroke-width="0.5"/>
<path d="M16.4814 2.21149L16.4815 2.21122C16.5162 2.15439 16.5733 2.11207 16.6413 2.09525C16.7095 2.07841 16.7815 2.08897 16.8412 2.12397C16.9007 2.15887 16.9423 2.21467 16.9585 2.27796C16.9747 2.34112 16.9648 2.40819 16.9303 2.46482C16.9303 2.46484 16.9303 2.46487 16.9303 2.46489L13.9646 7.31827L13.9646 7.31827L13.9636 7.31984C13.9414 7.35675 13.9094 7.38789 13.8703 7.40968C13.8312 7.43148 13.7867 7.44303 13.7411 7.44285C13.6927 7.44264 13.6455 7.42958 13.6045 7.40544C13.5454 7.37052 13.5042 7.31495 13.488 7.25195C13.472 7.18915 13.4817 7.12246 13.5157 7.06605C13.5158 7.06594 13.5159 7.06584 13.5159 7.06573L16.4814 2.21149ZM15.4313 8.43707L15.4303 8.43707C15.3832 8.43708 15.3374 8.42433 15.2978 8.40061L15.2978 8.4006L15.2958 8.39939C15.2665 8.38221 15.2413 8.35972 15.2214 8.33342L15.0221 8.48435L15.2214 8.33342C15.2014 8.30714 15.1872 8.27751 15.1792 8.2463C15.1712 8.2151 15.1696 8.18274 15.1743 8.15098C15.1791 8.11922 15.1902 8.08848 15.2073 8.06053L18.1731 3.20571L18.1732 3.20581L18.178 3.19724C18.1944 3.16786 18.2169 3.1417 18.2443 3.12051L18.0914 2.92274L18.2443 3.12051C18.2717 3.09931 18.3035 3.08356 18.3377 3.07443C18.372 3.0653 18.4079 3.06304 18.4432 3.06782C18.4784 3.0726 18.5122 3.08429 18.5423 3.10201C18.5724 3.11972 18.5983 3.14302 18.6185 3.17029C18.6387 3.19755 18.6529 3.22826 18.6605 3.26054C18.6681 3.29281 18.669 3.32619 18.6631 3.35876C18.6572 3.39134 18.6446 3.42266 18.6259 3.45082L18.6258 3.45072L18.6208 3.45886L15.6562 8.31254L15.6557 8.3134C15.6332 8.35053 15.6009 8.38182 15.5615 8.40372C15.5221 8.42564 15.4772 8.43725 15.4313 8.43707Z" fill="#2B3344" stroke="black" stroke-width="0.5"/>
</svg>
