<svg width="38" height="38" viewBox="0 0 38 38" fill="none" xmlns="http://www.w3.org/2000/svg">
<g filter="url(#filter0_d_172_714)">
<circle cx="19" cy="15" r="14.75" fill="#F0F8FF" stroke="#3E3FFF" stroke-width="0.5"/>
<path d="M23.3117 26.2318C23.5987 26.0761 23.8143 25.8165 23.9114 25.5064C23.9593 25.3585 23.9756 25.2024 23.9594 25.0478C23.9431 24.8928 23.8943 24.743 23.8164 24.6077L12.2001 4.3728C12.1519 4.28197 12.0789 4.20697 11.9901 4.15593C11.9014 4.10497 11.8003 4.07983 11.6983 4.08292C11.604 4.08294 11.511 4.10682 11.4283 4.1526C11.3436 4.1995 11.2724 4.26789 11.2224 4.35131L11.2224 4.3513L11.2218 4.3524L10.9 4.89607C10.8999 4.89621 10.8998 4.89635 10.8997 4.89649C10.6692 5.28273 10.5305 5.7154 10.4942 6.16215C10.4579 6.60878 10.5249 7.05759 10.6901 7.47495C10.6903 7.47522 10.6904 7.4755 10.6905 7.47577L13.2476 14.061C13.2477 14.061 13.2477 14.061 13.2477 14.0611C13.4169 14.4992 13.6892 14.8914 14.0419 15.2059C14.3945 15.5204 14.8176 15.7482 15.2764 15.8712L15.2786 15.8718L16.0936 16.0824C16.0937 16.0824 16.0938 16.0824 16.0939 16.0825C16.1311 16.0923 16.1655 16.1097 16.1947 16.1334L16.3518 15.9389L16.1947 16.1334C16.2236 16.1567 16.2468 16.1855 16.2631 16.2176C17.8456 19.5211 19.6397 22.7229 21.6347 25.8037C21.8049 26.0751 22.0746 26.2702 22.3865 26.3496C22.6986 26.4291 23.03 26.3871 23.3117 26.2318ZM23.3117 26.2318C23.3114 26.2319 23.3111 26.2321 23.3108 26.2322L23.1918 26.0124L23.3128 26.2312C23.3124 26.2314 23.312 26.2316 23.3117 26.2318ZM21.1967 26.0739L21.1959 26.0725C19.227 23.0357 17.4549 19.8803 15.8902 16.6251L15.8387 16.518L15.7231 16.4903L15.1362 16.3496C14.5981 16.2047 14.1027 15.9376 13.69 15.5702C13.2765 15.2021 12.9577 14.7437 12.7592 14.2327L10.2027 7.64686L10.2027 7.64686L10.2022 7.64557C10.0105 7.1599 9.93317 6.63823 9.97571 6.11937C10.0183 5.60052 10.1796 5.09754 10.4481 4.64794L10.4481 4.64795L10.4486 4.64706L10.7719 4.10056C10.7719 4.10046 10.772 4.10036 10.772 4.10025C10.8661 3.94244 11.0012 3.81111 11.1642 3.71994C11.3273 3.62868 11.5124 3.58101 11.7007 3.58205V3.58205H11.7021H11.7177C11.9089 3.58322 12.0961 3.63415 12.2602 3.7293C12.4244 3.82454 12.5593 3.96052 12.6516 4.12286L12.6516 4.12286L12.6521 4.12379L24.271 24.3606L24.2711 24.3608C24.3825 24.5544 24.4519 24.7682 24.4752 24.9889C24.4984 25.2096 24.475 25.4327 24.4064 25.6443L24.4057 25.6464C24.2706 26.0761 23.9725 26.4401 23.5711 26.6624L23.57 26.6631C23.3036 26.8125 23.0019 26.8917 22.6944 26.8927C22.3943 26.8906 22.0997 26.8143 21.838 26.6712C21.576 26.5279 21.3555 26.3223 21.1967 26.0739Z" fill="#2B3344" stroke="black" stroke-width="0.5"/>
<path d="M18.6686 15.3797L18.6713 15.3796C18.7177 15.3797 18.7631 15.3678 18.8029 15.3456C18.8427 15.3235 18.8754 15.2918 18.8981 15.2543L18.9023 15.2474L18.9069 15.2408C19.736 14.0551 20.4322 13.0822 20.9171 12.4139L21.0509 12.2169L21.0553 12.2105L21.0554 12.2105C21.0754 12.183 21.0892 12.152 21.0961 12.1195C21.103 12.087 21.1031 12.0535 21.0961 12.021L21.0958 12.0195C21.0891 11.9867 21.0755 11.9554 21.0556 11.9274C21.0358 11.8995 21.0101 11.8755 20.9799 11.8572L20.8015 11.7493C20.6451 11.6589 20.508 11.539 20.3984 11.3961C20.2881 11.2524 20.2079 11.0884 20.1625 10.9135C20.1171 10.7387 20.1075 10.5566 20.1343 10.378C20.1611 10.1995 20.2237 10.0283 20.3183 9.87416C20.3183 9.87404 20.3184 9.87393 20.3185 9.87381L24.2316 3.47368C24.2612 3.41805 24.2682 3.35396 24.2516 3.29386L24.4925 3.22714L24.2516 3.29385C24.2345 3.23227 24.1935 3.17819 24.1355 3.14396L24.2615 2.93016L24.1355 3.14396C24.0773 3.10966 24.0072 3.09848 23.9402 3.11341C23.8748 3.12798 23.8188 3.16596 23.7823 3.2182L19.87 9.61699C19.8699 9.61724 19.8697 9.61748 19.8696 9.61773C19.6402 9.9995 19.5565 10.4481 19.6327 10.8841C19.7089 11.3205 19.9407 11.7171 20.2879 12.0029L20.4687 12.1517L20.332 12.3418C19.8537 13.0073 19.2087 13.9067 18.4552 14.9832C18.4265 15.0254 18.4114 15.0744 18.4113 15.1242C18.4113 15.1243 18.4113 15.1244 18.4113 15.1244L18.4113 15.1355M18.6686 15.3797L18.1613 15.1359M18.6686 15.3797C18.6343 15.38 18.6004 15.3737 18.5689 15.3612C18.5374 15.3487 18.5091 15.3304 18.4853 15.3074L18.3114 15.487M18.6686 15.3797L18.3114 15.487M18.4113 15.1355V15.1359H18.1613M18.4113 15.1355C18.4113 15.1354 18.4113 15.1353 18.4113 15.1352L18.1613 15.1359M18.4113 15.1355C18.4114 15.1671 18.4179 15.1985 18.4304 15.2279C18.443 15.2574 18.4616 15.2844 18.4853 15.3074L18.3114 15.487M18.1613 15.1359C18.1614 15.2012 18.1748 15.2659 18.2006 15.3262C18.2263 15.3864 18.264 15.4411 18.3114 15.487M14.1417 26.8926L14.1394 26.8926C13.8168 26.8934 13.5007 26.8047 13.2278 26.6373L13.2278 26.6372L13.2234 26.6346C12.8328 26.4058 12.5488 26.0385 12.4292 25.6106C12.3096 25.1829 12.3629 24.7263 12.5787 24.3358C13.7392 22.2403 15.1255 19.9693 16.5882 17.7629L16.3798 17.6248L16.588 17.7631C16.625 17.7074 16.684 17.6672 16.7528 17.6529L16.7022 17.4081L16.7528 17.6529C16.8218 17.6387 16.8934 17.652 16.9516 17.6892C17.0096 17.7263 17.0489 17.7836 17.0626 17.8475C17.0763 17.9113 17.0638 17.9781 17.0269 18.0336L17.0268 18.0337C15.5726 20.2259 14.1927 22.4872 13.0453 24.5691L13.0451 24.5696C12.8917 24.8495 12.8542 25.1773 12.9411 25.4841C13.0277 25.7899 13.2306 26.0498 13.506 26.2109C13.7782 26.3766 14.1051 26.4307 14.4169 26.3622C14.729 26.2935 15.0026 26.107 15.1777 25.8413C16.1577 24.3885 17.1928 22.7378 18.2585 20.9295C18.2936 20.8762 18.3489 20.8367 18.4142 20.8207C18.4808 20.8044 18.5511 20.8143 18.6099 20.8476C18.6686 20.8809 18.7105 20.9344 18.7284 20.9958C18.7459 21.0558 18.7396 21.1202 18.7102 21.1762C17.6375 22.9954 16.5981 24.6549 15.6177 26.1087L15.6177 26.1087L15.616 26.1112C15.4579 26.3519 15.24 26.55 14.9822 26.6868C14.7244 26.8236 14.4353 26.8945 14.1417 26.8926ZM22.5009 13.0677L22.5017 13.066C22.5169 13.0343 22.539 13.0057 22.5667 12.9824C22.5944 12.959 22.6271 12.9415 22.6628 12.9311L22.6646 12.9306C22.6988 12.9204 22.735 12.9175 22.7706 12.9221C22.8062 12.9268 22.8401 12.9389 22.8701 12.9573L22.8719 12.9584L23.0485 13.065C23.2039 13.1591 23.3765 13.2218 23.5564 13.2496C23.7362 13.2775 23.9199 13.2701 24.0969 13.2277L24.0981 13.2274C24.2733 13.1846 24.4384 13.1079 24.5836 13.0016C24.7285 12.8955 24.8509 12.7619 24.9432 12.6085C24.9434 12.6082 24.9436 12.6079 24.9438 12.6076L28.856 6.20887C28.8925 6.15663 28.9486 6.11865 29.014 6.10408C29.081 6.08916 29.151 6.10033 29.2092 6.13464L29.3362 5.9193L29.2092 6.13464C29.2672 6.16886 29.3083 6.22295 29.3253 6.28453L29.5663 6.21782L29.3253 6.28453C29.342 6.34462 29.335 6.40871 29.3053 6.46434L25.3947 12.8582L25.3942 12.859C25.2674 13.0683 25.0993 13.2511 24.8994 13.3967C24.6996 13.5423 24.4721 13.6476 24.2301 13.7065C23.8387 13.8009 23.427 13.7727 23.053 13.626L22.8411 13.5429L22.7385 13.746C22.1962 14.8198 21.3816 16.3601 20.4914 17.9978L20.4914 17.9978L20.49 18.0005C20.4688 18.0406 20.4364 18.075 20.3959 18.0992C20.3556 18.1233 20.309 18.1365 20.2612 18.1368C20.2175 18.1364 20.1748 18.1256 20.1368 18.1056L20.0204 18.3265L20.137 18.1057C20.076 18.0734 20.0318 18.0196 20.0126 17.9571C19.9935 17.8949 20.0002 17.8278 20.0316 17.7699C21.0617 15.883 21.9844 14.1243 22.5009 13.0677Z" fill="#2B3344" stroke="black" stroke-width="0.5"/>
<path d="M25.4814 4.21149L25.4815 4.21122C25.5162 4.15439 25.5733 4.11207 25.6413 4.09525C25.7095 4.07841 25.7815 4.08897 25.8412 4.12397C25.9007 4.15887 25.9423 4.21467 25.9585 4.27796C25.9747 4.34112 25.9648 4.40819 25.9303 4.46482C25.9303 4.46484 25.9303 4.46487 25.9303 4.46489L22.9646 9.31827L22.9646 9.31827L22.9636 9.31984C22.9414 9.35675 22.9094 9.38789 22.8703 9.40968C22.8312 9.43148 22.7867 9.44303 22.7411 9.44285C22.6927 9.44264 22.6455 9.42958 22.6045 9.40544C22.5454 9.37052 22.5042 9.31495 22.488 9.25195C22.472 9.18915 22.4817 9.12246 22.5157 9.06605C22.5158 9.06594 22.5159 9.06584 22.5159 9.06573L25.4814 4.21149ZM24.4313 10.4371L24.4303 10.4371C24.3832 10.4371 24.3374 10.4243 24.2978 10.4006L24.2978 10.4006L24.2958 10.3994C24.2665 10.3822 24.2413 10.3597 24.2214 10.3334L24.0221 10.4844L24.2214 10.3334C24.2014 10.3071 24.1872 10.2775 24.1792 10.2463C24.1712 10.2151 24.1696 10.1827 24.1743 10.151C24.1791 10.1192 24.1902 10.0885 24.2073 10.0605L27.1731 5.20571L27.1732 5.20581L27.178 5.19724C27.1944 5.16786 27.2169 5.1417 27.2443 5.12051L27.0914 4.92274L27.2443 5.12051C27.2717 5.09931 27.3035 5.08356 27.3377 5.07443C27.372 5.0653 27.4079 5.06304 27.4432 5.06782C27.4784 5.0726 27.5122 5.08429 27.5423 5.10201C27.5724 5.11972 27.5983 5.14302 27.6185 5.17029C27.6387 5.19755 27.6529 5.22826 27.6605 5.26054C27.6681 5.29281 27.669 5.32619 27.6631 5.35876C27.6572 5.39134 27.6446 5.42266 27.6259 5.45082L27.6258 5.45072L27.6208 5.45886L24.6562 10.3125L24.6557 10.3134C24.6332 10.3505 24.6009 10.3818 24.5615 10.4037C24.5221 10.4256 24.4772 10.4372 24.4313 10.4371Z" fill="#2B3344" stroke="black" stroke-width="0.5"/>
</g>
<defs>
<filter id="filter0_d_172_714" x="0" y="0" width="38" height="38" filterUnits="userSpaceOnUse" color-interpolation-filters="sRGB">
<feFlood flood-opacity="0" result="BackgroundImageFix"/>
<feColorMatrix in="SourceAlpha" type="matrix" values="0 0 0 0 0 0 0 0 0 0 0 0 0 0 0 0 0 0 127 0" result="hardAlpha"/>
<feOffset dy="4"/>
<feGaussianBlur stdDeviation="2"/>
<feComposite in2="hardAlpha" operator="out"/>
<feColorMatrix type="matrix" values="0 0 0 0 0 0 0 0 0 0 0 0 0 0 0 0 0 0 0.75 0"/>
<feBlend mode="normal" in2="BackgroundImageFix" result="effect1_dropShadow_172_714"/>
<feBlend mode="normal" in="SourceGraphic" in2="effect1_dropShadow_172_714" result="shape"/>
</filter>
</defs>
</svg>
