<svg width="415" height="447" viewBox="0 0 415 447" fill="none" xmlns="http://www.w3.org/2000/svg">
<path d="M235.576 53.8061L235.705 53.6788L194.526 13.1017C190.781 9.4129 184.585 9.4129 180.841 13.1017C177.098 16.7905 177.098 22.8962 180.841 26.585L201.238 46.6829C187.683 51.7709 178.518 65.3814 180.841 81.1543C182.907 95.1465 195.041 106.468 209.242 107.994C215.309 108.63 220.601 107.612 225.636 105.45V197.162C225.636 204.158 219.827 209.882 212.727 209.882C205.627 209.882 199.817 204.158 199.817 197.162V139.921C199.817 125.929 188.199 114.481 174 114.481H161.091V25.4402C161.091 11.4481 149.473 0 135.272 0H57.8182C43.6181 0 32 11.4481 32 25.4402V216.242C32 223.239 37.8091 228.962 44.9091 228.962H148.181C155.281 228.962 161.091 223.239 161.091 216.242V133.561H180.454V195.381C180.454 212.045 192.588 227.181 209.371 228.835C228.734 230.743 245 215.86 245 197.162V76.3207C245 67.5438 241.385 59.5302 235.576 53.8061ZM135.272 89.0408H57.8182V38.1604C57.8182 31.1643 63.6272 25.4402 70.7272 25.4402H122.363C129.463 25.4402 135.272 31.1643 135.272 38.1604V89.0408ZM212.727 89.0408C205.627 89.0408 199.817 83.3168 199.817 76.3207C199.817 69.3247 205.627 63.6006 212.727 63.6006C219.827 63.6006 225.636 69.3247 225.636 76.3207C225.636 83.3168 219.827 89.0408 212.727 89.0408Z" fill="black"/>
<path d="M20.9027 426.769C37.4544 404.821 54.8869 383.423 70.468 360.765C78.544 349.02 86.0995 336.48 96.6828 326.766C112.5 308.522 127.745 293.266 151 294C157.5 294.205 164.179 296.408 168.353 298.995C174.471 302.786 180.924 306.279 187.781 308.522C203.762 313.748 221.111 316.45 237.533 312.445C261.522 306.594 283.848 294.425 304.72 281.435C321.003 271.301 335.044 257.281 349.553 244.822C365.329 231.275 379.488 216.132 394.137 201.483" stroke="black" stroke-width="40" stroke-linecap="round"/>
</svg>
