<svg width="414" height="409" viewBox="0 0 414 409" fill="none" xmlns="http://www.w3.org/2000/svg">
<path d="M200.431 13L213.097 139M73.764 13L61.0973 139M48.4306 13H225.764M251.097 88.6H23.0973" stroke="black" stroke-width="25" stroke-linecap="round" stroke-linejoin="round"/>
<path d="M20 388.769C36.5516 366.821 53.9842 345.423 69.5653 322.765C77.6413 311.02 85.1968 298.48 95.7801 288.766C111.597 270.522 126.842 255.266 150.097 256C156.597 256.205 163.276 258.408 167.451 260.995C173.568 264.786 180.021 268.279 186.878 270.522C202.859 275.748 220.208 278.45 236.63 274.445C260.619 268.594 282.945 256.425 303.817 243.435C320.101 233.301 334.141 219.281 348.65 206.822C364.427 193.275 378.586 178.132 393.234 163.483" stroke="black" stroke-width="40" stroke-linecap="round"/>
</svg>
