<svg width="414" height="450" viewBox="0 0 414 450" fill="none" xmlns="http://www.w3.org/2000/svg">
<path d="M182.241 138.832C182.241 152.683 176.891 165.968 167.367 175.762C161.96 181.323 155.458 185.503 148.383 188.075M216.097 142.312C216.097 67.8864 137.097 10 137.097 10C137.097 10 58.0973 67.8864 58.0973 142.312C58.0973 164.244 66.4205 185.279 81.2358 200.788C96.0513 216.296 116.146 225 137.098 225C158.05 225 178.143 216.291 192.958 200.783C207.774 185.275 216.097 164.244 216.097 142.312Z" stroke="black" stroke-width="20" stroke-linecap="round" stroke-linejoin="round"/>
<path d="M20 429.769C36.5516 407.821 53.9842 386.423 69.5653 363.765C77.6413 352.02 85.1968 339.48 95.7801 329.766C111.597 311.522 126.842 296.266 150.097 297C156.597 297.205 163.276 299.408 167.451 301.995C173.568 305.786 180.021 309.279 186.878 311.522C202.859 316.748 220.208 319.45 236.63 315.445C260.619 309.594 282.945 297.425 303.817 284.435C320.101 274.301 334.141 260.281 348.65 247.822C364.427 234.275 378.586 219.132 393.234 204.483" stroke="black" stroke-width="40" stroke-linecap="round"/>
</svg>
