<svg width="415" height="456" viewBox="0 0 415 456" fill="none" xmlns="http://www.w3.org/2000/svg">
<path d="M15 122.884C15 120.107 15.9266 117.677 17.8955 115.71C19.8644 113.858 22.2966 112.933 24.8446 112.933H48.4718C51.1356 112.933 53.3362 113.858 55.1893 115.826C56.9266 117.793 57.8531 120.107 57.8531 122.884C57.8531 125.661 57.0423 127.975 55.3051 129.942C53.5678 131.909 51.2514 132.835 48.5875 132.835H24.9604C22.2966 132.835 19.9802 131.909 18.0113 129.942C16.0424 127.975 15 125.661 15 122.884ZM48.1244 203.071C48.1244 200.41 49.0508 198.095 50.7881 196.012L67.8136 179.467C69.5508 177.614 71.8673 176.804 74.647 176.804C77.4266 176.804 79.7429 177.731 81.596 179.467C83.4492 181.202 84.3756 183.4 84.3756 186.061C84.3756 188.839 83.4492 191.385 81.596 193.466L65.1497 209.898C60.4011 213.601 55.6526 213.601 50.904 209.898C49.0508 208.047 48.1244 205.732 48.1244 203.071ZM48.1244 42.9284C48.1244 40.2671 49.0508 37.9528 50.7881 35.8701C53.1045 33.9031 55.5367 32.9773 58.2006 32.9773C60.7486 32.9773 63.0649 33.9031 65.0338 35.7544L81.596 52.7638C83.4492 54.4993 84.3756 56.8135 84.3756 59.5907C84.3756 62.3677 83.4492 64.6819 81.596 66.5332C79.7429 68.3846 77.4266 69.3102 74.647 69.3102C71.8673 69.3102 69.5508 68.3846 67.8136 66.5332L50.904 49.9866C49.0508 48.1353 48.1244 45.7054 48.1244 42.9284ZM77.6582 122.884C77.6582 112.123 80.322 102.056 85.7655 92.7994C91.209 83.5426 98.5056 76.1371 107.887 70.6988C117.268 65.2603 127.229 62.599 138 62.599C146.107 62.599 153.867 64.219 161.396 67.4589C168.808 70.6988 175.293 74.98 180.622 80.4184C186.066 85.8567 190.351 92.2208 193.478 99.6263C196.604 107.032 198.226 114.9 198.226 123C198.226 133.876 195.562 143.943 190.119 153.2C184.675 162.457 177.378 169.747 168.114 175.185C158.847 180.623 148.771 183.285 137.884 183.285C126.997 183.285 116.921 180.623 107.655 175.185C98.3899 169.747 91.0933 162.457 85.6497 153.2C80.4378 143.827 77.6582 133.761 77.6582 122.884ZM97.3474 122.884C97.3474 134.224 101.285 143.827 109.277 151.812C117.153 159.796 126.766 163.845 138.116 163.845C149.466 163.845 159.079 159.796 167.071 151.812C175.062 143.827 179.115 134.224 179.115 122.884C179.115 111.776 175.062 102.288 167.071 94.3036C159.079 86.4353 149.466 82.5012 138.116 82.5012C126.881 82.5012 117.268 86.4353 109.393 94.3036C101.285 102.288 97.3474 111.776 97.3474 122.884ZM128.155 212.906C128.155 210.129 129.082 207.815 131.051 205.964C133.02 204.112 135.336 203.186 138 203.186C140.78 203.186 143.212 204.112 145.065 205.964C146.918 207.815 147.845 210.129 147.845 212.906V235.933C147.845 238.709 146.918 241.139 144.949 243.107C142.98 245.073 140.664 246 138 246C135.336 246 132.904 245.073 131.051 243.107C129.082 241.139 128.155 238.709 128.155 235.933V212.906ZM128.155 33.5558V9.95105C128.155 7.28973 129.082 4.97553 131.051 3.00846C133.02 1.04139 135.336 0 138.116 0C140.896 0 143.096 0.925679 145.065 2.89275C147.034 4.85982 147.96 7.17401 147.96 9.83534V33.5558C147.96 36.2172 147.034 38.4156 145.065 40.2671C143.096 42.1184 140.78 42.9284 138.116 42.9284C135.452 42.9284 133.02 42.0026 131.167 40.2671C129.314 38.5314 128.155 36.2172 128.155 33.5558ZM192.088 186.061C192.088 183.4 193.014 181.202 194.752 179.582C196.489 177.731 198.689 176.921 201.237 176.921C204.018 176.921 206.333 177.846 208.186 179.582L225.096 196.129C226.949 198.095 227.875 200.525 227.875 203.186C227.875 205.847 226.949 208.162 225.096 210.013C220.463 213.601 215.83 213.601 211.197 210.013L194.752 193.583C193.014 191.5 192.088 189.07 192.088 186.061ZM192.088 59.7063C192.088 56.8136 193.014 54.4993 194.752 52.8794L211.197 35.8701C213.167 34.0187 215.482 33.0931 218.03 33.0931C220.811 33.0931 223.127 34.0187 224.981 35.9857C226.949 37.9528 227.875 40.2671 227.875 42.9284C227.875 45.8211 226.949 48.2511 225.096 50.1024L208.186 66.6489C206.101 68.5002 203.785 69.4259 201.237 69.4259C198.574 69.4259 196.489 68.5002 194.752 66.6489C193.014 64.7976 192.088 62.4833 192.088 59.7063ZM218.263 122.884C218.263 120.107 219.189 117.793 221.042 115.71C222.896 113.858 225.096 112.933 227.644 112.933H251.04C253.704 112.933 256.019 113.974 257.989 115.941C259.958 117.908 261 120.223 261 122.884C261 125.545 259.958 127.86 257.989 129.827C256.019 131.794 253.704 132.719 251.04 132.719H227.644C224.981 132.719 222.663 131.794 220.926 129.827C219.189 127.86 218.263 125.661 218.263 122.884Z" fill="black"/>
<path d="M20.9027 435.769C37.4544 413.821 54.8869 392.423 70.468 369.765C78.544 358.02 86.0995 345.48 96.6828 335.766C112.5 317.522 127.745 302.266 151 303C157.5 303.205 164.179 305.408 168.353 307.995C174.471 311.786 180.924 315.279 187.781 317.522C203.762 322.748 221.111 325.45 237.533 321.445C261.522 315.594 283.848 303.425 304.72 290.435C321.003 280.301 335.044 266.281 349.553 253.822C365.329 240.275 379.488 225.132 394.137 210.483" stroke="black" stroke-width="40" stroke-linecap="round"/>
</svg>
