<svg width="414" height="456" viewBox="0 0 414 456" fill="none" xmlns="http://www.w3.org/2000/svg">
<path d="M190.985 248.842C193.95 247.243 196.178 244.577 197.182 241.393C197.677 239.874 197.845 238.271 197.678 236.683C197.509 235.092 197.005 233.553 196.2 232.164L76.1649 24.3669C75.667 23.4342 74.9128 22.664 73.9946 22.1398C73.0781 21.6165 72.0332 21.3583 70.9795 21.3901C70.005 21.3903 69.0443 21.6355 68.1898 22.1056C67.3142 22.5872 66.5787 23.2896 66.0626 24.1462L66.0557 24.1574L62.7305 29.7405C60.3484 33.7069 58.9122 38.1544 58.537 42.7422C58.162 47.3287 58.8548 51.9376 60.5621 56.2236L86.9895 123.857C88.7385 128.356 91.5524 132.385 95.1966 135.615C98.8407 138.844 103.213 141.184 107.954 142.447L107.976 142.453L116.397 144.616C116.782 144.716 117.141 144.896 117.443 145.139C117.741 145.378 117.981 145.674 118.149 146.004C134.501 179.928 153.041 212.808 173.656 244.446C175.415 247.233 178.201 249.236 181.424 250.052C184.649 250.868 188.074 250.437 190.985 248.842ZM169.13 247.221L169.122 247.206C148.776 216.021 130.465 183.617 114.295 150.189L113.764 149.089L112.569 148.804L106.505 147.359C100.944 145.871 95.8247 143.129 91.5603 139.356C87.2874 135.575 83.9938 130.868 81.9427 125.621L55.5247 57.989L55.5196 57.9757C53.5394 52.9883 52.74 47.6311 53.1796 42.3028C53.6192 36.9746 55.2868 31.8094 58.0607 27.1924L58.0661 27.1833L61.4066 21.5712C62.3786 19.9506 63.7763 18.5988 65.4604 17.6625C67.1459 16.7254 69.0584 16.2358 71.0049 16.2465H71.0191H71.1803C73.156 16.2585 75.0904 16.7815 76.7856 17.7587C78.4824 18.7367 79.8764 20.1331 80.8299 21.8002L80.8355 21.8098L200.898 229.626C202.049 231.614 202.767 233.812 203.008 236.078C203.247 238.345 203.006 240.636 202.297 242.809L202.289 242.83C200.893 247.243 197.813 250.981 193.665 253.264L193.654 253.271C190.901 254.805 187.784 255.619 184.606 255.629C181.505 255.607 178.461 254.824 175.757 253.354C173.049 251.883 170.771 249.771 169.13 247.221Z" fill="black"/>
<path d="M190.985 248.842C193.95 247.243 196.178 244.577 197.182 241.393C197.677 239.874 197.845 238.271 197.678 236.683C197.509 235.092 197.005 233.553 196.2 232.164L76.1649 24.3669C75.667 23.4342 74.9128 22.664 73.9946 22.1398C73.0781 21.6165 72.0332 21.3583 70.9795 21.3901C70.005 21.3903 69.0443 21.6355 68.1898 22.1056C67.3142 22.5872 66.5787 23.2896 66.0626 24.1462L66.0557 24.1574L62.7305 29.7405C60.3484 33.7069 58.9122 38.1544 58.537 42.7422C58.162 47.3287 58.8548 51.9376 60.5621 56.2236L86.9895 123.857C88.7385 128.356 91.5524 132.385 95.1966 135.615C98.8407 138.844 103.213 141.184 107.954 142.447L107.976 142.453L116.397 144.616C116.782 144.716 117.141 144.896 117.443 145.139C117.741 145.378 117.981 145.674 118.149 146.004C134.501 179.928 153.041 212.808 173.656 244.446C175.415 247.233 178.201 249.236 181.424 250.052C184.649 250.868 188.074 250.437 190.985 248.842ZM190.985 248.842C190.988 248.84 190.992 248.838 190.996 248.836M169.13 247.221L169.122 247.206C148.776 216.021 130.465 183.617 114.295 150.189L113.764 149.089L112.569 148.804L106.505 147.359C100.944 145.871 95.8247 143.129 91.5603 139.356C87.2874 135.575 83.9938 130.868 81.9427 125.621L55.5247 57.989L55.5196 57.9757C53.5394 52.9883 52.74 47.6311 53.1796 42.3028C53.6192 36.9746 55.2868 31.8094 58.0607 27.1924L58.0661 27.1833L61.4066 21.5712C62.3786 19.9506 63.7763 18.5988 65.4604 17.6625C67.1459 16.7254 69.0584 16.2358 71.0049 16.2465H71.0191H71.1803C73.156 16.2585 75.0904 16.7815 76.7856 17.7587C78.4824 18.7367 79.8764 20.1331 80.8299 21.8002L80.8355 21.8098L200.898 229.626C202.049 231.614 202.767 233.812 203.008 236.078C203.247 238.345 203.006 240.636 202.297 242.809L202.289 242.83C200.893 247.243 197.813 250.981 193.665 253.264L193.654 253.271C190.901 254.805 187.784 255.619 184.606 255.629C181.505 255.607 178.461 254.824 175.757 253.354C173.049 251.883 170.771 249.771 169.13 247.221Z" stroke="black" stroke-width="10"/>
<path d="M143.006 137.399L143.034 137.398C143.514 137.399 143.982 137.277 144.394 137.049C144.805 136.822 145.143 136.497 145.378 136.112L145.421 136.041L145.469 135.973C154.036 123.797 161.23 113.806 166.241 106.943L167.623 104.92L167.669 104.854C167.875 104.572 168.019 104.253 168.09 103.92C168.162 103.586 168.163 103.242 168.09 102.908L168.087 102.893C168.018 102.556 167.877 102.234 167.672 101.947C167.467 101.66 167.202 101.414 166.89 101.226L165.046 100.117C163.43 99.1899 162.013 97.9582 160.881 96.4908C159.741 95.0152 158.912 93.331 158.443 91.5352C157.974 89.7395 157.875 87.87 158.152 86.0358C158.429 84.2031 159.075 82.4444 160.053 80.8616L200.49 15.1336C200.796 14.5623 200.869 13.9042 200.697 13.287C200.52 12.6546 200.097 12.0992 199.497 11.7476C198.896 11.3954 198.172 11.2806 197.479 11.4339C196.804 11.5835 196.225 11.9736 195.848 12.51L155.421 78.2207C153.05 82.1412 152.181 86.756 152.968 91.2333C153.756 95.7142 156.151 99.7871 159.739 102.722L161.607 104.25L160.195 106.202C155.252 113.037 148.587 122.273 140.801 133.328C140.505 133.761 140.348 134.264 140.347 134.775V134.892M96.2277 255.628H96.2049C92.8705 255.636 89.6048 254.725 86.7842 253.006L86.7391 252.978C82.7034 250.629 79.7686 246.857 78.5321 242.463C77.296 238.071 77.8476 233.382 80.0767 229.372C92.0686 207.852 106.394 184.531 121.508 161.873C121.89 161.301 122.498 160.89 123.21 160.743C123.922 160.597 124.662 160.734 125.263 161.116C125.863 161.497 126.269 162.085 126.411 162.742C126.552 163.397 126.423 164.083 126.042 164.653C111.015 187.165 96.7554 210.388 84.8991 231.767C83.314 234.642 82.9243 238.013 83.8218 241.164C84.7165 244.304 86.8132 246.973 89.6596 248.627C92.4721 250.329 95.8503 250.885 99.0716 250.181C102.297 249.476 105.124 247.56 106.933 244.832C117.06 229.913 127.756 212.961 138.768 194.391C139.131 193.844 139.703 193.438 140.378 193.274C141.066 193.107 141.792 193.208 142.4 193.55C143.006 193.892 143.439 194.442 143.624 195.072C143.805 195.688 143.739 196.35 143.436 196.925C132.351 215.607 121.611 232.648 111.48 247.578L111.463 247.604C109.828 250.075 107.577 252.11 104.913 253.514C102.249 254.919 99.2617 255.647 96.2277 255.628ZM182.607 113.657L182.615 113.639C182.772 113.314 183 113.02 183.286 112.781C183.573 112.541 183.911 112.361 184.28 112.254L184.298 112.249C184.652 112.144 185.026 112.114 185.393 112.162C185.761 112.21 186.112 112.334 186.422 112.523L186.44 112.534L188.265 113.629C189.871 114.595 191.654 115.239 193.513 115.525C195.371 115.811 197.27 115.735 199.099 115.3L199.111 115.297C200.921 114.857 202.627 114.07 204.128 112.978C205.625 111.888 206.89 110.516 207.844 108.941C207.846 108.938 207.848 108.935 207.85 108.932L248.276 43.2219C248.653 42.6854 249.233 42.2954 249.909 42.1458C250.601 41.9926 251.324 42.1073 251.926 42.4596C252.525 42.811 252.95 43.3665 253.125 43.9989C253.298 44.616 253.226 45.2741 252.919 45.8454L212.509 111.505C211.199 113.655 209.457 115.54 207.391 117.035C205.326 118.531 202.976 119.612 200.475 120.217C196.43 121.186 192.176 120.897 188.312 119.39L186.122 118.537L185.062 120.622C179.458 131.65 171.04 147.467 161.842 164.285L161.827 164.313C161.608 164.725 161.273 165.078 160.855 165.326C160.438 165.574 159.957 165.709 159.463 165.713C159.011 165.708 158.57 165.598 158.178 165.392C157.547 165.06 157.093 164.509 156.894 163.867C156.697 163.228 156.766 162.539 157.09 161.945C167.735 142.568 177.269 124.507 182.607 113.657Z" fill="black"/>
<path d="M121.508 161.873C106.394 184.531 92.0686 207.852 80.0767 229.372C77.8476 233.382 77.296 238.071 78.5321 242.463C79.7686 246.857 82.7034 250.629 86.7391 252.978L86.7842 253.006C89.6048 254.725 92.8705 255.636 96.2049 255.628H96.2277C99.2617 255.647 102.249 254.919 104.913 253.514C107.577 252.11 109.828 250.075 111.463 247.604L111.48 247.578C121.611 232.648 132.351 215.607 143.436 196.925C143.739 196.35 143.805 195.688 143.624 195.072C143.439 194.442 143.006 193.892 142.4 193.55C141.792 193.208 141.066 193.107 140.378 193.274C139.703 193.438 139.131 193.844 138.768 194.391C127.756 212.961 117.06 229.913 106.933 244.832C105.124 247.56 102.297 249.476 99.0716 250.181C95.8503 250.885 92.4721 250.329 89.6596 248.627C86.8132 246.973 84.7165 244.304 83.8218 241.164C82.9243 238.013 83.314 234.642 84.8991 231.767C96.7554 210.388 111.015 187.165 126.042 164.653C126.423 164.083 126.552 163.397 126.411 162.742C126.269 162.085 125.863 161.497 125.263 161.116C124.662 160.734 123.922 160.597 123.21 160.743M121.508 161.873L119.355 160.455M121.508 161.873C121.89 161.301 122.498 160.89 123.21 160.743M123.21 160.743L122.687 158.229M143.006 137.399L143.034 137.398C143.514 137.399 143.982 137.277 144.394 137.049C144.805 136.822 145.143 136.497 145.378 136.112L145.421 136.041L145.469 135.973C154.036 123.797 161.23 113.806 166.241 106.943L167.623 104.92L167.669 104.854C167.875 104.572 168.019 104.253 168.09 103.92C168.162 103.586 168.163 103.242 168.09 102.908L168.087 102.893C168.018 102.556 167.877 102.234 167.672 101.947C167.467 101.66 167.202 101.414 166.89 101.226L165.046 100.117C163.43 99.1899 162.013 97.9582 160.881 96.4908C159.741 95.0152 158.912 93.331 158.443 91.5352C157.974 89.7395 157.875 87.87 158.152 86.0358C158.429 84.2031 159.075 82.4444 160.053 80.8616L200.49 15.1336C200.796 14.5623 200.869 13.9042 200.697 13.287C200.52 12.6546 200.097 12.0992 199.497 11.7476C198.896 11.3954 198.172 11.2806 197.479 11.4339C196.804 11.5835 196.225 11.9736 195.848 12.51L155.421 78.2207C153.05 82.1412 152.181 86.756 152.968 91.2333C153.756 95.7142 156.151 99.7871 159.739 102.722L161.607 104.25L160.195 106.202C155.252 113.037 148.587 122.273 140.801 133.328C140.505 133.761 140.348 134.264 140.347 134.775V134.892C140.348 135.216 140.415 135.538 140.545 135.84C140.675 136.143 140.867 136.421 141.112 136.657C141.357 136.893 141.651 137.081 141.976 137.209C142.302 137.338 142.652 137.402 143.006 137.399ZM182.607 113.657L182.615 113.639C182.772 113.314 183 113.02 183.286 112.781C183.573 112.541 183.911 112.361 184.28 112.254L184.298 112.249C184.652 112.144 185.026 112.114 185.393 112.162C185.761 112.21 186.112 112.334 186.422 112.523L186.44 112.534L188.265 113.629C189.871 114.595 191.654 115.239 193.513 115.525C195.371 115.811 197.27 115.735 199.099 115.3L199.111 115.297C200.921 114.857 202.627 114.07 204.128 112.978C205.625 111.888 206.89 110.516 207.844 108.941C207.846 108.938 207.848 108.935 207.85 108.932L248.276 43.2219C248.653 42.6854 249.233 42.2954 249.909 42.1458C250.601 41.9926 251.324 42.1073 251.926 42.4596C252.525 42.811 252.95 43.3665 253.125 43.9989C253.298 44.616 253.226 45.2741 252.919 45.8454L212.509 111.505C211.199 113.655 209.457 115.54 207.391 117.035C205.326 118.531 202.976 119.612 200.475 120.217C196.43 121.186 192.176 120.897 188.312 119.39L186.122 118.537L185.062 120.622C179.458 131.65 171.04 147.467 161.842 164.285L161.827 164.313C161.608 164.725 161.273 165.078 160.855 165.326C160.438 165.574 159.957 165.709 159.463 165.713C159.011 165.708 158.57 165.598 158.178 165.392C157.547 165.06 157.093 164.509 156.894 163.867C156.697 163.228 156.766 162.539 157.09 161.945C167.735 142.568 177.269 124.507 182.607 113.657Z" stroke="black" stroke-width="10"/>
<path d="M213.405 22.7103C213.764 22.1267 214.355 21.6894 215.057 21.5167C215.762 21.3437 216.506 21.4522 217.123 21.8116C217.738 22.17 218.168 22.743 218.335 23.3929C218.503 24.0416 218.4 24.7303 218.044 25.3119L187.398 75.1531L187.388 75.1692C187.158 75.5482 186.828 75.868 186.424 76.0918C186.02 76.3156 185.56 76.4342 185.089 76.4324C184.589 76.4302 184.101 76.2961 183.677 76.0482C183.066 75.6896 182.641 75.119 182.473 74.472C182.308 73.8271 182.408 73.1422 182.76 72.563L213.405 22.7103ZM202.554 86.6423H202.544C202.057 86.6424 201.584 86.5114 201.175 86.2679L201.154 86.2553C200.851 86.0789 200.591 85.8479 200.385 85.5779C200.178 85.308 200.032 85.0037 199.949 84.6832C199.866 84.3628 199.85 84.0305 199.898 83.7043C199.948 83.3782 200.063 83.0625 200.239 82.7755L230.886 32.9202L230.937 32.8332C231.106 32.5315 231.339 32.2629 231.622 32.0453C231.905 31.8276 232.233 31.6658 232.587 31.5721C232.941 31.4783 233.312 31.4551 233.677 31.5042C234.041 31.5533 234.39 31.6733 234.701 31.8553C235.012 32.0372 235.28 32.2764 235.488 32.5565C235.697 32.8364 235.844 33.1518 235.922 33.4833C236.001 33.8147 236.01 34.1575 235.949 34.4919C235.888 34.8265 235.758 35.1481 235.565 35.4373L235.512 35.5199L204.878 85.3634C204.646 85.7447 204.307 86.0749 203.899 86.2998C203.492 86.5249 203.028 86.6441 202.554 86.6423Z" fill="black" stroke="black" stroke-width="10"/>
<path d="M20 435.769C36.5516 413.821 53.9842 392.423 69.5653 369.765C77.6413 358.02 85.1968 345.48 95.7801 335.766C111.597 317.522 126.842 302.266 150.097 303C156.597 303.205 163.276 305.408 167.451 307.995C173.568 311.786 180.021 315.279 186.878 317.522C202.859 322.748 220.208 325.45 236.63 321.445C260.619 315.594 282.945 303.425 303.817 290.435C320.101 280.301 334.141 266.281 348.65 253.822C364.427 240.275 378.586 225.132 393.234 210.483" stroke="black" stroke-width="40" stroke-linecap="round"/>
</svg>
