<svg width="414" height="443" viewBox="0 0 414 443" fill="none" xmlns="http://www.w3.org/2000/svg">
<path d="M69.0225 32.2222H222.91C231.487 32.2222 236.864 41.4387 232.609 48.846L203.91 98.8033C199.934 105.727 192.531 110 184.514 110H108.118M108.118 110L90.874 137.444C86.2241 144.844 91.5727 154.444 100.346 154.444H219.819M108.118 110L64.0271 22.2841C60.2428 14.7556 52.5073 10 44.0454 10H41.0973M108.118 198.889C108.118 205.026 103.117 210 96.9477 210C90.7787 210 85.7776 205.026 85.7776 198.889C85.7776 192.752 90.7787 187.778 96.9477 187.778C103.117 187.778 108.118 192.752 108.118 198.889ZM219.819 198.889C219.819 205.026 214.818 210 208.648 210C202.479 210 197.478 205.026 197.478 198.889C197.478 192.752 202.479 187.778 208.648 187.778C214.818 187.778 219.819 192.752 219.819 198.889Z" stroke="black" stroke-width="20" stroke-linecap="round" stroke-linejoin="round"/>
<path d="M20 422.286C36.5516 400.338 53.9842 378.94 69.5653 356.282C77.6413 344.537 85.1968 331.997 95.7801 322.283C111.597 304.039 126.842 288.782 150.097 289.517C156.597 289.722 163.276 291.925 167.451 294.512C173.568 298.302 180.021 301.796 186.878 304.039C202.859 309.265 220.208 311.967 236.63 307.962C260.619 302.111 282.945 289.942 303.817 276.952C320.101 266.818 334.141 252.798 348.65 240.339C364.427 226.792 378.586 211.649 393.234 197" stroke="black" stroke-width="40" stroke-linecap="round"/>
</svg>
