<svg width="369" height="381" viewBox="0 0 369 381" fill="none" xmlns="http://www.w3.org/2000/svg">
<path d="M48 360.993C59.0753 338.201 68.5364 314.767 77.1203 290.936C84.5521 270.303 91.8998 244.773 106.452 227.982C114.804 218.345 125.768 207.051 138.878 204.278C154.174 201.042 171.342 206.393 186.427 208.217C241.475 214.871 274.8 162.212 300.517 122.263C316.315 97.7205 336.482 74.0294 348.066 47" stroke="black" stroke-width="40" stroke-linecap="round"/>
<path d="M41.2053 35.8889H130.508C135.485 35.8889 138.606 41.2344 136.137 45.5307L119.482 74.5059C117.174 78.5215 112.879 81 108.227 81H63.8927M63.8927 81L53.8859 96.9178C51.1876 101.21 54.2915 106.778 59.3828 106.778H128.714M63.8927 81L38.3064 30.1248C36.1104 25.7582 31.6214 23 26.7108 23H25M63.8927 132.556C63.8927 136.115 60.9905 139 57.4106 139C53.8306 139 50.9285 136.115 50.9285 132.556C50.9285 128.996 53.8306 126.111 57.4106 126.111C60.9905 126.111 63.8927 128.996 63.8927 132.556ZM128.714 132.556C128.714 136.115 125.812 139 122.232 139C118.652 139 115.75 136.115 115.75 132.556C115.75 128.996 118.652 126.111 122.232 126.111C125.812 126.111 128.714 128.996 128.714 132.556Z" stroke="black" stroke-width="15" stroke-linecap="round" stroke-linejoin="round"/>
</svg>
