<svg width="415" height="394" viewBox="0 0 415 394" fill="none" xmlns="http://www.w3.org/2000/svg">
<path d="M254.227 50.9406C252.444 46.1402 249.843 41.6142 246.621 37.5366C236.861 25.1605 221.69 16.0084 203.227 9.66801C201.893 9.22276 200.522 8.77422 199.154 8.36571C192.03 6.13617 184.461 4.35197 176.547 3.01624C164.835 1.02775 152.369 0 139.388 0H137.127C129.454 0.0670028 121.956 0.515495 114.695 1.26874C101.885 2.63798 89.7938 5.03823 78.7663 8.46619C72.3946 10.3877 66.3679 12.6841 60.7851 15.2552C59.0057 16.0786 57.2565 16.9357 55.5441 17.8262C44.7913 23.48 35.784 30.4401 29.3119 38.7686C22.8366 47.1004 18.9667 57.0066 19.0002 67.6683V68.0098C19.0369 73.2226 19.9936 78.2269 21.8097 82.749C24.9939 90.7738 30.7836 97.2845 38.0114 102.323C48.9018 109.898 63.1131 114.632 79.5551 117.682C96.0278 120.73 114.798 122 134.728 122C135.963 122 137.23 122 138.461 121.966C169.63 121.692 197.989 118.605 219.533 110.618C230.319 106.574 239.497 101.261 246.28 93.9602C249.635 90.2908 252.377 86.1101 254.227 81.4803C256.076 76.8539 257.033 71.8161 256.999 66.5034V66.1586C256.967 60.8799 256.007 55.7379 254.227 50.9406ZM241.587 66.5034C241.587 69.9984 241.005 73.0145 239.909 75.7563C237.992 80.5567 234.43 84.8417 228.848 88.715C220.56 94.5432 207.817 99.1357 192.2 102.048C176.584 104.997 158.121 106.403 138.361 106.541C137.127 106.574 135.929 106.574 134.728 106.574C105.342 106.608 79.0736 103.629 61.0924 96.8732C52.0851 93.549 45.269 89.331 40.9544 84.6007C38.7975 82.2373 37.2217 79.7333 36.1246 77.025C35.0308 74.3168 34.4489 71.3341 34.4122 67.906V67.6683C34.4122 60.7091 36.7433 54.3687 41.4694 48.2324C47.0852 40.9311 56.3333 34.1757 68.2872 28.7592C72.669 37.2956 76.2305 45.4203 79.0405 52.1391C84.2115 64.378 95.0349 60.1261 92.2956 48.6441C90.7537 41.9924 89.0412 33.3889 85.0008 22.6602C95.9613 19.436 108.256 17.2065 121.441 16.1457C126.1 27.5607 129.525 38.4607 132.127 47.2381C136.204 60.8798 148.566 57.6928 147.061 45.1459C146.168 37.6404 145.382 27.9394 142.094 15.4594C156.135 15.5966 169.459 17.1065 181.481 19.6774C184.017 29.5831 185.795 38.8394 187.166 46.5523C189.698 60.7096 202.201 58.8248 202.064 46.0033C202.031 40.4162 202.168 33.6974 201.482 25.4355C205.763 27.0456 209.77 28.7964 213.436 30.6811C222.647 35.4114 229.771 41.0316 234.464 47.0678C239.19 53.0998 241.522 59.3366 241.589 66.2628L241.587 66.5034Z" fill="black"/>
<path d="M20.9027 373.769C37.4544 351.821 54.8869 330.423 70.468 307.765C78.544 296.02 86.0995 283.48 96.6828 273.766C112.5 255.522 127.745 240.266 151 241C157.5 241.205 164.179 243.408 168.353 245.995C174.471 249.786 180.924 253.279 187.781 255.522C203.762 260.748 221.111 263.45 237.533 259.445C261.522 253.594 283.848 241.425 304.72 228.435C321.003 218.301 335.044 204.281 349.553 191.822C365.329 178.275 379.488 163.132 394.137 148.483" stroke="black" stroke-width="40" stroke-linecap="round"/>
</svg>
