<svg width="414" height="416" viewBox="0 0 414 416" fill="none" xmlns="http://www.w3.org/2000/svg">
<path d="M187.279 53.2371C186.36 51.5096 185.076 50.084 183.551 49.0955C182.027 48.1069 180.31 47.5881 178.565 47.5881C176.82 47.5881 175.103 48.1069 173.578 49.0955C172.052 50.084 170.77 51.5096 169.85 53.2371L159.599 72.6949L125.869 5.8458C124.961 4.06447 123.671 2.58883 122.125 1.5639C120.579 0.538959 118.831 0 117.052 0C115.273 0 113.525 0.538959 111.979 1.5639C110.433 2.58883 109.143 4.06447 108.235 5.8458L36.4709 149.094C35.5737 150.903 35.1 152.955 35.0973 155.045C35.0946 157.134 35.5629 159.188 36.4554 161C37.3479 162.813 38.6333 164.321 40.1833 165.374C41.7332 166.427 43.4933 166.987 45.2877 167H229.825C231.657 167.005 233.456 166.437 235.036 165.357C236.615 164.277 237.918 162.725 238.807 160.86C239.697 158.995 240.141 156.887 240.094 154.755C240.047 152.623 239.511 150.545 238.54 148.736L187.279 53.2371ZM121.666 143.125H63.1263L117.052 35.6892L147.193 95.3755L134.378 119.251L121.666 143.125ZM145.758 143.125L161.034 114.834L168.313 102.18L178.565 82.1254L211.371 143.125H145.758Z" fill="black"/>
<path d="M20 395.769C36.5516 373.821 53.9842 352.423 69.5653 329.765C77.6413 318.02 85.1968 305.48 95.7801 295.766C111.597 277.522 126.842 262.266 150.097 263C156.597 263.205 163.276 265.408 167.451 267.995C173.568 271.786 180.021 275.279 186.878 277.522C202.859 282.748 220.208 285.45 236.63 281.445C260.619 275.594 282.945 263.425 303.817 250.435C320.101 240.301 334.141 226.281 348.65 213.822C364.427 200.275 378.586 185.132 393.234 170.483" stroke="black" stroke-width="40" stroke-linecap="round"/>
</svg>
