<svg width="414" height="437" viewBox="0 0 414 437" fill="none" xmlns="http://www.w3.org/2000/svg">
<path d="M244.332 176.625C244.393 176.202 244.393 175.772 244.332 175.349L234.131 31.1785C234.03 29.6625 233.356 28.2418 232.246 27.2051C231.135 26.1684 229.672 25.5933 228.154 25.5967H221.26V5.98053C221.26 4.3944 220.63 2.87322 219.51 1.75165C218.389 0.630086 216.868 0 215.283 0H171.968C170.383 0 168.863 0.630086 167.742 1.75165C166.621 2.87322 165.991 4.3944 165.991 5.98053V25.5967H159.097C157.582 25.6027 156.124 26.1809 155.016 27.2158C153.908 28.2506 153.231 29.6659 153.12 31.1785L150.291 71.7265H124.868L121.999 31.1785C121.889 29.6659 121.212 28.2506 120.103 27.2158C118.995 26.1809 117.538 25.6027 116.022 25.5967H109.208V5.98053C109.208 4.3944 108.578 2.87322 107.457 1.75165C106.336 0.630086 104.816 0 103.231 0H59.8761C58.2909 0 56.7705 0.630086 55.6496 1.75165C54.5287 2.87322 53.8989 4.3944 53.8989 5.98053V25.5967H47.0451C45.5265 25.5933 44.0636 26.1684 42.9534 27.2051C41.8433 28.2418 41.1691 29.6625 41.0679 31.1785L29.1135 202.621C29.0528 203.44 29.1628 204.263 29.4364 205.038C29.71 205.813 30.1413 206.523 30.7031 207.122C31.2649 207.722 31.9449 208.198 32.7001 208.522C33.4553 208.845 34.2694 209.008 35.0907 209H128.056C128.875 209 129.686 208.834 130.44 208.512C131.193 208.19 131.873 207.719 132.439 207.126C133.545 205.894 134.118 204.274 134.033 202.621L132.24 176.944V176.625C132.281 176.201 132.281 175.774 132.24 175.349L127.498 109.404H147.701L141.166 202.621C141.105 203.44 141.215 204.263 141.489 205.038C141.762 205.813 142.194 206.523 142.755 207.122C143.317 207.722 143.997 208.198 144.752 208.522C145.508 208.845 146.322 209.008 147.143 209H240.108C240.928 209.005 241.741 208.841 242.495 208.519C243.249 208.197 243.928 207.722 244.492 207.126C245.047 206.521 245.474 205.81 245.748 205.036C246.022 204.262 246.137 203.44 246.085 202.621L244.292 176.944C244.292 176.944 244.332 176.745 244.332 176.625ZM121.64 197.039H41.4664L42.5024 182.606H120.644L121.64 197.039ZM43.3392 170.645L52.5839 37.5578H110.523L112.914 71.7265H103.231C101.645 71.7265 100.125 72.3566 99.0041 73.4782C97.8832 74.5998 97.2535 76.1209 97.2535 77.7071V103.423C97.2535 105.01 97.8832 106.531 99.0041 107.652C100.125 108.774 101.645 109.404 103.231 109.404H115.544L119.807 170.645H43.3392ZM65.8533 11.9611H97.2535V25.5967H65.8533V11.9611ZM109.208 97.4428V83.6876H161.847V97.4428H109.208ZM167.984 109.404C169.569 109.404 171.089 108.774 172.21 107.652C173.331 106.531 173.961 105.01 173.961 103.423V77.7071C173.961 76.1209 173.331 74.5998 172.21 73.4782C171.089 72.3566 169.569 71.7265 167.984 71.7265H162.285L164.676 37.5578H222.575L231.86 170.645H155.392L159.655 109.404H167.984ZM177.786 11.9611H209.146V25.5967H177.786V11.9611ZM233.573 197.039H153.559L154.555 182.606H232.697L233.573 197.039Z" fill="black"/>
<path d="M20 416.769C36.5516 394.821 53.9842 373.423 69.5653 350.765C77.6413 339.02 85.1968 326.48 95.7801 316.766C111.597 298.522 126.842 283.266 150.097 284C156.597 284.205 163.276 286.408 167.451 288.995C173.568 292.786 180.021 296.279 186.878 298.522C202.859 303.748 220.208 306.45 236.63 302.445C260.619 296.594 282.945 284.425 303.817 271.435C320.101 261.301 334.141 247.281 348.65 234.822C364.427 221.275 378.586 206.132 393.234 191.483" stroke="black" stroke-width="40" stroke-linecap="round"/>
</svg>
