<svg width="21" height="21" viewBox="0 0 21 21" fill="none" xmlns="http://www.w3.org/2000/svg">
<circle cx="10.5" cy="10.5" r="10.5" fill="#ACDBFD"/>
<path d="M2.33325 10.5727C2.33325 10.3721 2.40714 10.1927 2.54436 10.0449C2.68159 9.89711 2.85048 9.82322 3.05104 9.82322C3.25159 9.82322 3.43104 9.89711 3.56826 10.0449C3.70549 10.1927 3.77938 10.3616 3.77938 10.5727C3.77938 10.7732 3.70549 10.9421 3.56826 11.0793C3.43104 11.2166 3.25159 11.2905 3.06159 11.2905C2.87159 11.2905 2.69214 11.2166 2.55492 11.0793C2.39659 10.9316 2.33325 10.7627 2.33325 10.5727ZM4.42327 10.5727C4.42327 10.3721 4.49716 10.1927 4.63439 10.0449C4.77161 9.89711 4.9405 9.82322 5.14106 9.82322H8.55053L6.14384 7.41653C5.99606 7.28986 5.92217 7.12097 5.92217 6.92041C5.92217 6.71985 5.99606 6.55096 6.14384 6.40318C6.29162 6.2554 6.46051 6.18151 6.66107 6.18151C6.86163 6.18151 7.03052 6.2554 7.1783 6.40318L9.57443 8.79932V5.41095C9.57443 5.2104 9.64832 5.03095 9.7961 4.88317C9.94388 4.73539 10.1128 4.6615 10.3239 4.6615C10.5244 4.6615 10.6933 4.73539 10.8306 4.88317C10.9678 5.03095 11.0417 5.19984 11.0417 5.41095V8.82043L13.4589 6.39263C13.6067 6.24485 13.7756 6.17096 13.9656 6.17096C14.1556 6.17096 14.335 6.24485 14.4828 6.39263C14.6095 6.54041 14.6728 6.7093 14.6728 6.90985C14.6728 7.11041 14.6095 7.2793 14.4828 7.40597L12.0761 9.81266H15.4856C15.6756 9.81266 15.8445 9.88655 15.9817 10.0343C16.1189 10.1821 16.1928 10.351 16.1928 10.5621C16.1928 10.7521 16.1189 10.921 15.9817 11.0582C15.8445 11.1955 15.6756 11.2693 15.4856 11.2693H12.0761L14.4934 13.6866C14.62 13.8133 14.6834 13.9821 14.6834 14.1827C14.6834 14.3833 14.62 14.5521 14.4934 14.6999C14.3456 14.8477 14.1661 14.9216 13.9761 14.9216C13.7861 14.9216 13.6067 14.8477 13.4695 14.6999L11.0522 12.2721V15.6922C11.0522 15.8927 10.9783 16.0722 10.8411 16.2094C10.7039 16.3466 10.535 16.4205 10.3344 16.4205C10.1339 16.4205 9.95443 16.3466 9.80666 16.2094C9.65888 16.0722 9.58499 15.8927 9.58499 15.6922V12.2932L7.18885 14.6894C7.04107 14.8372 6.87218 14.911 6.67163 14.911C6.47107 14.911 6.30218 14.8372 6.1544 14.6894C6.00662 14.5416 5.93273 14.3727 5.93273 14.1721C5.93273 13.9716 6.00662 13.8133 6.1544 13.676L8.5822 11.2588H5.16217C4.96161 11.2588 4.79272 11.1849 4.6555 11.0477C4.48661 10.9316 4.42327 10.7627 4.42327 10.5727ZM4.43383 15.6816C4.43383 15.4916 4.50772 15.3122 4.6555 15.1749C4.78216 15.0272 4.95105 14.9533 5.15161 14.9533C5.35217 14.9533 5.52106 15.0272 5.66884 15.1749C5.81662 15.3227 5.89051 15.4916 5.89051 15.6816C5.89051 15.8716 5.81662 16.0511 5.66884 16.1883C5.52106 16.3361 5.35217 16.4099 5.15161 16.4099C4.95105 16.4099 4.78216 16.3361 4.6555 16.1883C4.50772 16.0511 4.43383 15.8822 4.43383 15.6816ZM4.43383 5.43206C4.43383 5.24206 4.50772 5.06262 4.6555 4.92539C4.78216 4.77761 4.95105 4.70372 5.15161 4.70372C5.35217 4.70372 5.52106 4.77761 5.66884 4.92539C5.81662 5.07317 5.89051 5.24206 5.89051 5.43206C5.89051 5.62207 5.81662 5.80151 5.66884 5.94929C5.52106 6.09707 5.35217 6.17096 5.15161 6.17096C4.95105 6.17096 4.78216 6.09707 4.6555 5.94929C4.50772 5.80151 4.43383 5.62207 4.43383 5.43206ZM9.55332 17.7927C9.55332 17.6027 9.62721 17.4338 9.77499 17.2966C9.92277 17.1594 10.0917 17.0855 10.3028 17.0855C10.5033 17.0855 10.6722 17.1594 10.8094 17.2966C10.9467 17.4338 11.0206 17.6027 11.0206 17.7927C11.0206 17.9933 10.9467 18.1727 10.8094 18.31C10.6722 18.4472 10.5033 18.5211 10.3028 18.5211C10.1022 18.5211 9.92277 18.4472 9.77499 18.31C9.62721 18.1727 9.55332 18.0038 9.55332 17.7927ZM9.55332 3.32093C9.55332 3.12038 9.62721 2.94093 9.77499 2.80371C9.92277 2.66648 10.0917 2.59259 10.3028 2.59259C10.5033 2.59259 10.6722 2.66648 10.8094 2.80371C10.9467 2.94093 11.0206 3.12038 11.0206 3.32093C11.0206 3.51093 10.9467 3.67983 10.8094 3.81705C10.6722 3.95427 10.5033 4.02816 10.3028 4.02816C10.1022 4.02816 9.92277 3.95427 9.77499 3.81705C9.62721 3.67983 9.55332 3.51093 9.55332 3.32093ZM14.6939 15.6816C14.6939 15.4916 14.7678 15.3122 14.9156 15.1749C15.0423 15.0272 15.2112 14.9533 15.4117 14.9533C15.6123 14.9533 15.7812 15.0272 15.9289 15.1749C16.0767 15.3227 16.1506 15.4916 16.1506 15.6816C16.1506 15.8716 16.0767 16.0511 15.9289 16.1883C15.7812 16.3361 15.6123 16.4099 15.4117 16.4099C15.2112 16.4099 15.0423 16.3361 14.9156 16.1883C14.7678 16.0511 14.6939 15.8822 14.6939 15.6816ZM14.6939 5.43206C14.6939 5.24206 14.7678 5.06262 14.9156 4.92539C15.0423 4.77761 15.2112 4.70372 15.4117 4.70372C15.6123 4.70372 15.7812 4.77761 15.9289 4.92539C16.0767 5.07317 16.1506 5.24206 16.1506 5.43206C16.1506 5.62207 16.0767 5.80151 15.9289 5.94929C15.7812 6.09707 15.6123 6.17096 15.4117 6.17096C15.2112 6.17096 15.0423 6.09707 14.9156 5.94929C14.7678 5.80151 14.6939 5.62207 14.6939 5.43206ZM16.8051 10.5727C16.8051 10.3721 16.8789 10.1927 17.0162 10.0449C17.1534 9.89711 17.3328 9.82322 17.5334 9.82322C17.7234 9.82322 17.8923 9.89711 18.0295 10.0449C18.1667 10.1927 18.2406 10.3616 18.2406 10.5727C18.2406 10.7627 18.1667 10.9316 18.0295 11.0688C17.8923 11.206 17.7234 11.2799 17.5334 11.2799C17.3328 11.2799 17.1534 11.206 17.0162 11.0688C16.8789 10.9316 16.8051 10.7627 16.8051 10.5727Z" fill="black"/>
</svg>
