<svg width="21" height="21" viewBox="0 0 21 21" fill="none" xmlns="http://www.w3.org/2000/svg">
<circle cx="10.5" cy="10.5" r="10.5" fill="#ACDBFD"/>
<path d="M2.33325 10.1312C2.33325 10.9818 2.58611 11.7404 3.09184 12.407C3.59757 13.0736 4.25654 13.5334 5.06877 13.7786L4.56304 15.0659C4.54006 15.1732 4.57837 15.2345 4.67032 15.2345H6.30243L5.55151 18.5294H5.76606L8.76976 14.1234C8.80041 14.0928 8.80041 14.0544 8.77742 14.0161C8.75444 13.9778 8.71612 13.9625 8.66249 13.9625H6.99206L8.89236 10.4071C8.946 10.2998 8.90769 10.2385 8.78509 10.2385H6.53231C6.46335 10.2385 6.40205 10.2768 6.35607 10.3535L5.53618 12.5526C4.99214 12.4147 4.54006 12.1158 4.17992 11.6637C3.81978 11.2117 3.64354 10.6983 3.64354 10.1236C3.64354 9.48759 3.85809 8.93589 4.29485 8.46081C4.73162 7.9934 5.26799 7.71755 5.90398 7.64092L6.3101 7.58728C6.40971 7.58728 6.46335 7.54131 6.46335 7.44936L6.51698 7.05857C6.60127 6.23102 6.94608 5.53373 7.56675 4.97437C8.18741 4.41501 8.91535 4.13149 9.75056 4.13149C10.5858 4.13149 11.3137 4.41501 11.9344 4.97437C12.5627 5.53373 12.9152 6.23102 13.0071 7.05857L13.0608 7.503C13.0608 7.58728 13.1067 7.63326 13.1987 7.63326H14.4247C15.122 7.63326 15.712 7.87846 16.2024 8.3612C16.6928 8.84394 16.9457 9.43395 16.9457 10.1083C16.9457 10.7596 16.7158 11.3266 16.2637 11.8017C15.8116 12.2767 15.2446 12.5449 14.5779 12.5986C14.4783 12.5986 14.4247 12.6445 14.4247 12.7365V13.7863C14.4247 13.8705 14.4783 13.9165 14.5779 13.9165C15.5971 13.8859 16.4629 13.4951 17.1755 12.7595C17.8881 12.0239 18.2406 11.1427 18.2406 10.1159C18.2406 9.42629 18.0721 8.7903 17.7272 8.20795C17.3901 7.6256 16.9227 7.16585 16.3403 6.8287C15.7503 6.49155 15.1143 6.32297 14.4247 6.32297H14.1872C13.9343 5.30386 13.3903 4.46864 12.5704 3.82499C11.7505 3.18134 10.808 2.85185 9.75056 2.85185C8.67015 2.85185 7.70467 3.189 6.86946 3.85564C6.03425 4.52228 5.49787 5.38048 5.26033 6.43025C4.40979 6.62947 3.7125 7.06623 3.1608 7.75586C2.6091 8.44549 2.33325 9.25005 2.33325 10.1312ZM8.57054 17.5715C8.57054 17.8704 8.71612 18.0696 9.01496 18.1615C9.02262 18.1615 9.05327 18.1616 9.09925 18.1692C9.14522 18.1769 9.18354 18.1769 9.20652 18.1769C9.33679 18.1769 9.45939 18.1386 9.58199 18.0619C9.70459 17.9853 9.78888 17.8627 9.82719 17.6941L11.5513 11.0354C11.5972 10.8515 11.5819 10.6906 11.4976 10.5374C11.4133 10.3918 11.2907 10.2922 11.1145 10.2385C10.9842 10.2232 10.9153 10.2155 10.9153 10.2155C10.7927 10.2155 10.6701 10.2538 10.5551 10.3305C10.4402 10.4071 10.3559 10.522 10.3176 10.6753L8.58586 17.357C8.5782 17.4336 8.57054 17.5026 8.57054 17.5715ZM11.7581 15.2268C11.7581 15.3264 11.7811 15.426 11.8348 15.518C11.942 15.6866 12.0723 15.8015 12.2256 15.8551C12.3098 15.8781 12.3865 15.8934 12.4554 15.8934C12.5244 15.8934 12.6087 15.8781 12.7006 15.8321C12.8615 15.7632 12.9688 15.6176 13.0225 15.3954L14.1259 11.0507C14.1488 10.9435 14.1642 10.8745 14.1642 10.8439C14.1642 10.7289 14.1259 10.614 14.0416 10.499C13.9573 10.3841 13.8423 10.2998 13.6891 10.2538C13.5588 10.2385 13.4899 10.2309 13.4899 10.2309C13.3596 10.2309 13.237 10.2692 13.1297 10.3458C13.0225 10.4224 12.9458 10.5374 12.8999 10.6906L11.7811 15.0582C11.7811 15.0736 11.7811 15.0965 11.7735 15.1425C11.7581 15.1808 11.7581 15.2038 11.7581 15.2268Z" fill="black"/>
</svg>
