<svg width="20" height="21" viewBox="0 0 20 21" fill="none" xmlns="http://www.w3.org/2000/svg">
<path d="M0 10C0 9.77401 0.0753296 9.57627 0.235405 9.41619C0.39548 9.26554 0.59322 9.19021 0.800376 9.19021H2.72128C2.93785 9.19021 3.11676 9.26554 3.26742 9.42561C3.40866 9.58569 3.48399 9.77401 3.48399 10C3.48399 10.226 3.41808 10.4143 3.27684 10.5744C3.13559 10.7345 2.94727 10.8098 2.7307 10.8098H0.809793C0.59322 10.8098 0.404897 10.7345 0.244821 10.5744C0.084746 10.4143 0 10.226 0 10ZM2.69303 16.5254C2.69303 16.3088 2.76836 16.1205 2.9096 15.951L4.29379 14.6045C4.43503 14.4539 4.62335 14.3879 4.84934 14.3879C5.07533 14.3879 5.26365 14.4633 5.41431 14.6045C5.56497 14.7458 5.6403 14.9247 5.6403 15.1412C5.6403 15.3672 5.56497 15.5744 5.41431 15.7439L4.07721 17.081C3.69115 17.3823 3.30508 17.3823 2.91902 17.081C2.76836 16.9303 2.69303 16.742 2.69303 16.5254ZM2.69303 3.49341C2.69303 3.27684 2.76836 3.08851 2.9096 2.91902C3.09793 2.75894 3.29567 2.68362 3.51224 2.68362C3.7194 2.68362 3.90772 2.75895 4.0678 2.9096L5.41431 4.29379C5.56497 4.43503 5.6403 4.62335 5.6403 4.84934C5.6403 5.07533 5.56497 5.26365 5.41431 5.41431C5.26365 5.56497 5.07533 5.6403 4.84934 5.6403C4.62335 5.6403 4.43503 5.56497 4.29379 5.41431L2.91902 4.0678C2.76836 3.91714 2.69303 3.7194 2.69303 3.49341ZM5.09416 10C5.09416 9.12429 5.31073 8.30508 5.75329 7.55179C6.19586 6.79849 6.78908 6.19586 7.55179 5.75329C8.3145 5.31073 9.12429 5.09416 10 5.09416C10.6591 5.09416 11.29 5.22599 11.9021 5.48964C12.5047 5.75329 13.032 6.10169 13.4652 6.54426C13.9077 6.98682 14.2561 7.50471 14.5104 8.10734C14.7646 8.70998 14.8964 9.35028 14.8964 10.0094C14.8964 10.8945 14.6798 11.7137 14.2373 12.467C13.7947 13.2203 13.2015 13.8136 12.4482 14.2561C11.6949 14.6987 10.8757 14.9153 9.99058 14.9153C9.10546 14.9153 8.28625 14.6987 7.53296 14.2561C6.77966 13.8136 6.18644 13.2203 5.74388 12.467C5.32015 11.7043 5.09416 10.8851 5.09416 10ZM6.69491 10C6.69491 10.9228 7.01507 11.7043 7.66478 12.354C8.30508 13.0038 9.08663 13.3333 10.0094 13.3333C10.9322 13.3333 11.7137 13.0038 12.3635 12.354C13.0132 11.7043 13.3427 10.9228 13.3427 10C13.3427 9.09604 13.0132 8.32392 12.3635 7.6742C11.7137 7.0339 10.9322 6.71375 10.0094 6.71375C9.09604 6.71375 8.3145 7.0339 7.6742 7.6742C7.01507 8.32392 6.69491 9.09604 6.69491 10ZM9.19962 17.3258C9.19962 17.0998 9.27495 16.9115 9.43503 16.7608C9.5951 16.6102 9.78343 16.5348 10 16.5348C10.226 16.5348 10.4237 16.6102 10.5744 16.7608C10.725 16.9115 10.8004 17.0998 10.8004 17.3258V19.1996C10.8004 19.4256 10.725 19.6234 10.565 19.7834C10.4049 19.9435 10.2166 20.0188 10 20.0188C9.78343 20.0188 9.58569 19.9435 9.43503 19.7834C9.27495 19.6234 9.19962 19.4256 9.19962 19.1996V17.3258ZM9.19962 2.7307V0.809793C9.19962 0.59322 9.27495 0.404897 9.43503 0.244821C9.5951 0.084746 9.78343 0 10.0094 0C10.2354 0 10.4143 0.0753296 10.5744 0.235405C10.7345 0.39548 10.8098 0.583804 10.8098 0.800376V2.7307C10.8098 2.94727 10.7345 3.12618 10.5744 3.27684C10.4143 3.4275 10.226 3.49341 10.0094 3.49341C9.79284 3.49341 9.5951 3.41808 9.44444 3.27684C9.29378 3.13559 9.19962 2.94727 9.19962 2.7307ZM14.3974 15.1412C14.3974 14.9247 14.4727 14.7458 14.6139 14.6139C14.7552 14.4633 14.9341 14.3974 15.1412 14.3974C15.3672 14.3974 15.5556 14.4727 15.7062 14.6139L17.081 15.9605C17.2316 16.1205 17.307 16.3183 17.307 16.5348C17.307 16.7514 17.2316 16.9397 17.081 17.0904C16.7043 17.3823 16.3277 17.3823 15.951 17.0904L14.6139 15.7533C14.4727 15.5838 14.3974 15.3861 14.3974 15.1412ZM14.3974 4.85876C14.3974 4.62335 14.4727 4.43503 14.6139 4.3032L15.951 2.91902C16.1111 2.76836 16.2994 2.69303 16.5066 2.69303C16.7326 2.69303 16.9209 2.76836 17.0716 2.92844C17.2316 3.08851 17.307 3.27684 17.307 3.49341C17.307 3.72881 17.2316 3.92655 17.081 4.07721L15.7062 5.42373C15.5367 5.57439 15.3484 5.64972 15.1412 5.64972C14.9247 5.64972 14.7552 5.57439 14.6139 5.42373C14.4727 5.27307 14.3974 5.08474 14.3974 4.85876ZM16.5254 10C16.5254 9.77401 16.6008 9.58569 16.7514 9.41619C16.9021 9.26554 17.081 9.19021 17.2881 9.19021H19.1902C19.4068 9.19021 19.5951 9.27495 19.7552 9.43503C19.9153 9.5951 20 9.78343 20 10C20 10.2166 19.9153 10.4049 19.7552 10.565C19.5951 10.725 19.4068 10.8004 19.1902 10.8004H17.2881C17.0716 10.8004 16.8832 10.725 16.742 10.565C16.6007 10.4049 16.5254 10.226 16.5254 10Z" fill="black"/>
</svg>
