<svg width="21" height="21" viewBox="0 0 21 21" fill="none" xmlns="http://www.w3.org/2000/svg">
<circle cx="10.5" cy="10.5" r="10.5" fill="#ACDBFD"/>
<path d="M2.33325 10.287C2.33325 10.1073 2.39317 9.94999 2.52049 9.82267C2.6478 9.70285 2.80508 9.64293 2.96985 9.64293H4.49767C4.66993 9.64293 4.81223 9.70285 4.93206 9.83016C5.0444 9.95748 5.10431 10.1073 5.10431 10.287C5.10431 10.4668 5.05188 10.6165 4.93954 10.7439C4.8272 10.8712 4.67742 10.9311 4.50516 10.9311H2.97734C2.80508 10.9311 2.65529 10.8712 2.52798 10.7439C2.40066 10.6165 2.33325 10.4668 2.33325 10.287ZM4.47521 15.4771C4.47521 15.3049 4.53512 15.1551 4.64746 15.0203L5.74839 13.9493C5.86073 13.8295 6.01052 13.7771 6.19027 13.7771C6.37001 13.7771 6.5198 13.837 6.63963 13.9493C6.75946 14.0616 6.81937 14.2039 6.81937 14.3762C6.81937 14.5559 6.75946 14.7207 6.63963 14.8555L5.57614 15.919C5.26908 16.1587 4.96201 16.1587 4.65495 15.919C4.53512 15.7992 4.47521 15.6494 4.47521 15.4771ZM4.47521 5.11188C4.47521 4.93962 4.53512 4.78983 4.64746 4.65503C4.79725 4.52771 4.95452 4.46779 5.12678 4.46779C5.29154 4.46779 5.44133 4.52771 5.56865 4.64754L6.63963 5.74847C6.75946 5.86081 6.81937 6.0106 6.81937 6.19034C6.81937 6.37009 6.75946 6.51987 6.63963 6.6397C6.5198 6.75953 6.37001 6.81945 6.19027 6.81945C6.01052 6.81945 5.86073 6.75953 5.74839 6.6397L4.65495 5.56873C4.53512 5.4489 4.47521 5.29162 4.47521 5.11188ZM6.38499 10.287C6.38499 9.5905 6.55724 8.93893 6.90924 8.33978C7.26124 7.74064 7.73307 7.26132 8.33971 6.90932C8.94634 6.55732 9.59043 6.38506 10.2869 6.38506C10.8112 6.38506 11.313 6.48992 11.7998 6.69962C12.2791 6.90932 12.6985 7.18642 13.043 7.53842C13.395 7.89042 13.6721 8.30234 13.8743 8.78166C14.0765 9.26097 14.1814 9.77025 14.1814 10.2945C14.1814 10.9985 14.0091 11.6501 13.6571 12.2492C13.3051 12.8484 12.8333 13.3202 12.2342 13.6722C11.635 14.0242 10.9834 14.1965 10.2794 14.1965C9.57545 14.1965 8.92388 14.0242 8.32473 13.6722C7.72558 13.3202 7.25375 12.8484 6.90175 12.2492C6.56473 11.6426 6.38499 10.991 6.38499 10.287ZM7.65818 10.287C7.65818 11.021 7.91282 11.6426 8.42958 12.1594C8.93886 12.6761 9.56047 12.9382 10.2944 12.9382C11.0284 12.9382 11.65 12.6761 12.1668 12.1594C12.6835 11.6426 12.9457 11.021 12.9457 10.287C12.9457 9.56804 12.6835 8.95391 12.1668 8.43715C11.65 7.92787 11.0284 7.67323 10.2944 7.67323C9.56796 7.67323 8.94635 7.92787 8.43707 8.43715C7.91282 8.95391 7.65818 9.56804 7.65818 10.287ZM9.65034 16.1137C9.65034 15.934 9.71026 15.7842 9.83758 15.6644C9.9649 15.5445 10.1147 15.4846 10.2869 15.4846C10.4667 15.4846 10.624 15.5445 10.7438 15.6644C10.8636 15.7842 10.9235 15.934 10.9235 16.1137V17.6041C10.9235 17.7838 10.8636 17.9411 10.7363 18.0684C10.609 18.1958 10.4592 18.2557 10.2869 18.2557C10.1147 18.2557 9.95741 18.1958 9.83758 18.0684C9.71026 17.9411 9.65034 17.7838 9.65034 17.6041V16.1137ZM9.65034 4.50524V2.97741C9.65034 2.80516 9.71026 2.65537 9.83758 2.52805C9.9649 2.40073 10.1147 2.33333 10.2944 2.33333C10.4742 2.33333 10.6165 2.39324 10.7438 2.52056C10.8711 2.64788 10.931 2.79767 10.931 2.96992V4.50524C10.931 4.67749 10.8711 4.81979 10.7438 4.93962C10.6165 5.05945 10.4667 5.11188 10.2944 5.11188C10.1222 5.11188 9.9649 5.05196 9.84507 4.93962C9.72524 4.82728 9.65034 4.67749 9.65034 4.50524ZM13.7845 14.3762C13.7845 14.2039 13.8444 14.0616 13.9567 13.9568C14.0691 13.837 14.2114 13.7845 14.3761 13.7845C14.5559 13.7845 14.7057 13.8445 14.8255 13.9568L15.9189 15.0278C16.0388 15.1551 16.0987 15.3124 16.0987 15.4846C16.0987 15.6569 16.0388 15.8067 15.9189 15.9265C15.6194 16.1587 15.3198 16.1587 15.0202 15.9265L13.9567 14.863C13.8444 14.7282 13.7845 14.5709 13.7845 14.3762ZM13.7845 6.19783C13.7845 6.0106 13.8444 5.86081 13.9567 5.75596L15.0202 4.65503C15.1475 4.5352 15.2973 4.47528 15.4621 4.47528C15.6418 4.47528 15.7916 4.5352 15.9114 4.66251C16.0388 4.78983 16.0987 4.93962 16.0987 5.11188C16.0987 5.29911 16.0388 5.45639 15.9189 5.57622L14.8255 6.64719C14.6907 6.76702 14.5409 6.82694 14.3761 6.82694C14.2039 6.82694 14.0691 6.76702 13.9567 6.64719C13.8444 6.52736 13.7845 6.37757 13.7845 6.19783ZM15.4771 10.287C15.4771 10.1073 15.537 9.95748 15.6568 9.82267C15.7766 9.70285 15.9189 9.64293 16.0837 9.64293H17.5965C17.7688 9.64293 17.9186 9.71033 18.0459 9.83765C18.1732 9.96497 18.2406 10.1148 18.2406 10.287C18.2406 10.4593 18.1732 10.6091 18.0459 10.7364C17.9186 10.8637 17.7688 10.9236 17.5965 10.9236H16.0837C15.9114 10.9236 15.7616 10.8637 15.6493 10.7364C15.537 10.6091 15.4771 10.4668 15.4771 10.287Z" fill="black"/>
</svg>
