<svg width="38" height="38" viewBox="0 0 38 38" fill="none" xmlns="http://www.w3.org/2000/svg">
<g>
<circle cx="19" cy="15" r="14.75" fill="#ffffff" stroke="blue" stroke-width="1.5"/>
<path d="M9 15C9 14.774 9.07533 14.5763 9.2354 14.4162C9.39548 14.2655 9.59322 14.1902 9.80038 14.1902H11.7213C11.9379 14.1902 12.1168 14.2655 12.2674 14.4256C12.4087 14.5857 12.484 14.774 12.484 15C12.484 15.226 12.4181 15.4143 12.2768 15.5744C12.1356 15.7345 11.9473 15.8098 11.7307 15.8098H9.80979C9.59322 15.8098 9.4049 15.7345 9.24482 15.5744C9.08475 15.4143 9 15.226 9 15ZM11.693 21.5254C11.693 21.3088 11.7684 21.1205 11.9096 20.951L13.2938 19.6045C13.435 19.4539 13.6234 19.3879 13.8493 19.3879C14.0753 19.3879 14.2637 19.4633 14.4143 19.6045C14.565 19.7458 14.6403 19.9247 14.6403 20.1412C14.6403 20.3672 14.565 20.5744 14.4143 20.7439L13.0772 22.081C12.6911 22.3823 12.3051 22.3823 11.919 22.081C11.7684 21.9303 11.693 21.742 11.693 21.5254ZM11.693 8.49341C11.693 8.27684 11.7684 8.08851 11.9096 7.91902C12.0979 7.75894 12.2957 7.68362 12.5122 7.68362C12.7194 7.68362 12.9077 7.75895 13.0678 7.9096L14.4143 9.29379C14.565 9.43503 14.6403 9.62335 14.6403 9.84934C14.6403 10.0753 14.565 10.2637 14.4143 10.4143C14.2637 10.565 14.0753 10.6403 13.8493 10.6403C13.6234 10.6403 13.435 10.565 13.2938 10.4143L11.919 9.0678C11.7684 8.91714 11.693 8.7194 11.693 8.49341ZM14.0942 15C14.0942 14.1243 14.3107 13.3051 14.7533 12.5518C15.1959 11.7985 15.7891 11.1959 16.5518 10.7533C17.3145 10.3107 18.1243 10.0942 19 10.0942C19.6591 10.0942 20.29 10.226 20.9021 10.4896C21.5047 10.7533 22.032 11.1017 22.4652 11.5443C22.9077 11.9868 23.2561 12.5047 23.5104 13.1073C23.7646 13.71 23.8964 14.3503 23.8964 15.0094C23.8964 15.8945 23.6798 16.7137 23.2373 17.467C22.7947 18.2203 22.2015 18.8136 21.4482 19.2561C20.6949 19.6987 19.8757 19.9153 18.9906 19.9153C18.1055 19.9153 17.2863 19.6987 16.533 19.2561C15.7797 18.8136 15.1864 18.2203 14.7439 17.467C14.3202 16.7043 14.0942 15.8851 14.0942 15ZM15.6949 15C15.6949 15.9228 16.0151 16.7043 16.6648 17.354C17.3051 18.0038 18.0866 18.3333 19.0094 18.3333C19.9322 18.3333 20.7137 18.0038 21.3635 17.354C22.0132 16.7043 22.3427 15.9228 22.3427 15C22.3427 14.096 22.0132 13.3239 21.3635 12.6742C20.7137 12.0339 19.9322 11.7137 19.0094 11.7137C18.096 11.7137 17.3145 12.0339 16.6742 12.6742C16.0151 13.3239 15.6949 14.096 15.6949 15ZM18.1996 22.3258C18.1996 22.0998 18.275 21.9115 18.435 21.7608C18.5951 21.6102 18.7834 21.5348 19 21.5348C19.226 21.5348 19.4237 21.6102 19.5744 21.7608C19.725 21.9115 19.8004 22.0998 19.8004 22.3258V24.1996C19.8004 24.4256 19.725 24.6234 19.565 24.7834C19.4049 24.9435 19.2166 25.0188 19 25.0188C18.7834 25.0188 18.5857 24.9435 18.435 24.7834C18.275 24.6234 18.1996 24.4256 18.1996 24.1996V22.3258ZM18.1996 7.7307V5.80979C18.1996 5.59322 18.275 5.4049 18.435 5.24482C18.5951 5.08475 18.7834 5 19.0094 5C19.2354 5 19.4143 5.07533 19.5744 5.2354C19.7345 5.39548 19.8098 5.5838 19.8098 5.80038V7.7307C19.8098 7.94727 19.7345 8.12618 19.5744 8.27684C19.4143 8.4275 19.226 8.49341 19.0094 8.49341C18.7928 8.49341 18.5951 8.41808 18.4444 8.27684C18.2938 8.13559 18.1996 7.94727 18.1996 7.7307ZM23.3974 20.1412C23.3974 19.9247 23.4727 19.7458 23.6139 19.6139C23.7552 19.4633 23.9341 19.3974 24.1412 19.3974C24.3672 19.3974 24.5556 19.4727 24.7062 19.6139L26.081 20.9605C26.2316 21.1205 26.307 21.3183 26.307 21.5348C26.307 21.7514 26.2316 21.9397 26.081 22.0904C25.7043 22.3823 25.3277 22.3823 24.951 22.0904L23.6139 20.7533C23.4727 20.5838 23.3974 20.3861 23.3974 20.1412ZM23.3974 9.85876C23.3974 9.62335 23.4727 9.43503 23.6139 9.3032L24.951 7.91902C25.1111 7.76836 25.2994 7.69303 25.5066 7.69303C25.7326 7.69303 25.9209 7.76836 26.0716 7.92844C26.2316 8.08851 26.307 8.27684 26.307 8.49341C26.307 8.72881 26.2316 8.92655 26.081 9.07721L24.7062 10.4237C24.5367 10.5744 24.3484 10.6497 24.1412 10.6497C23.9247 10.6497 23.7552 10.5744 23.6139 10.4237C23.4727 10.2731 23.3974 10.0847 23.3974 9.85876ZM25.5254 15C25.5254 14.774 25.6008 14.5857 25.7514 14.4162C25.9021 14.2655 26.081 14.1902 26.2881 14.1902H28.1902C28.4068 14.1902 28.5951 14.275 28.7552 14.435C28.9153 14.5951 29 14.7834 29 15C29 15.2166 28.9153 15.4049 28.7552 15.565C28.5951 15.725 28.4068 15.8004 28.1902 15.8004H26.2881C26.0716 15.8004 25.8832 15.725 25.742 15.565C25.6008 15.4049 25.5254 15.226 25.5254 15Z" fill="black"/>
</g>
</svg>
