<svg width="21" height="21" viewBox="0 0 21 21" fill="none" xmlns="http://www.w3.org/2000/svg">
<circle cx="10.5" cy="10.5" r="10.5" fill="#ACDBFD"/>
<path d="M2.33325 13.6772C2.33325 13.5025 2.38914 13.3558 2.5079 13.2371C2.62667 13.1253 2.76639 13.0694 2.92707 13.0694H6.71354C7.23052 13.0694 7.67064 13.251 8.03392 13.6213C8.39719 13.9916 8.57883 14.4317 8.57883 14.9487C8.57883 15.4656 8.39719 15.9128 8.03392 16.276C7.67064 16.6393 7.23052 16.821 6.71354 16.821C6.19657 16.821 5.74946 16.6393 5.38618 16.269C5.2744 16.1573 5.2255 16.0175 5.2255 15.8499C5.2255 15.6822 5.28139 15.5355 5.38618 15.4307C5.49097 15.3189 5.6307 15.263 5.80535 15.263C5.96603 15.263 6.10575 15.3189 6.2315 15.4307C6.37122 15.5635 6.5319 15.6333 6.71354 15.6333C6.89518 15.6333 7.05586 15.5635 7.1886 15.4307C7.32133 15.298 7.3912 15.1373 7.3912 14.9417C7.3912 14.76 7.32133 14.5994 7.1886 14.4666C7.05586 14.3339 6.89518 14.264 6.71354 14.264H2.92707C2.76639 14.264 2.62667 14.2081 2.5079 14.0894C2.38914 13.9706 2.33325 13.8449 2.33325 13.6772ZM2.33325 11.5534C2.33325 11.3858 2.38914 11.2391 2.5079 11.1203C2.62667 11.0085 2.76639 10.9526 2.92707 10.9526H10.2974C10.4791 10.9526 10.6397 10.8828 10.7725 10.75C10.9052 10.6173 10.9751 10.4496 10.9751 10.268C10.9751 10.0863 10.9052 9.91867 10.7725 9.78594C10.6397 9.6532 10.4791 9.58334 10.2974 9.58334C10.1018 9.58334 9.94811 9.64622 9.82236 9.77895C9.69661 9.88374 9.5499 9.93963 9.37525 9.93963C9.20758 9.93963 9.06786 9.88374 8.95608 9.77895C8.85129 9.67416 8.7954 9.53444 8.7954 9.35979C8.7954 9.18513 8.84431 9.04541 8.95608 8.93363C9.31238 8.57734 9.75949 8.40269 10.2974 8.40269C10.8144 8.40269 11.2615 8.58433 11.6248 8.94761C11.9881 9.31088 12.1697 9.75101 12.1697 10.261C12.1697 10.771 11.9881 11.2181 11.6248 11.5814C11.2615 11.9446 10.8214 12.1263 10.2974 12.1263H2.92707C2.7594 12.1263 2.61968 12.0704 2.5079 11.9586C2.38914 11.8538 2.33325 11.7141 2.33325 11.5534ZM3.83527 9.9047C3.83527 9.96059 3.8702 9.98854 3.94704 9.98854H4.95304C5.00893 9.98854 5.05783 9.95361 5.10674 9.88374C5.26043 9.50649 5.51193 9.19212 5.84028 8.94062C6.17561 8.68912 6.54588 8.5494 6.95107 8.52145L7.32133 8.46556C7.41215 8.46556 7.46106 8.42365 7.46106 8.3468L7.50996 7.98352C7.58681 7.22902 7.90118 6.59329 8.46706 6.0833C9.03293 5.57331 9.69661 5.31483 10.4651 5.31483C11.2405 5.31483 11.9112 5.56633 12.4771 6.07631C13.043 6.5863 13.3643 7.22204 13.4482 7.98352L13.4971 8.3957C13.4971 8.47255 13.539 8.51447 13.6158 8.51447H14.7476C15.3833 8.51447 15.9212 8.73802 16.3753 9.18513C16.8294 9.63224 17.053 10.1632 17.053 10.7919C17.053 11.4137 16.8294 11.9516 16.3753 12.3987C15.9212 12.8459 15.3833 13.0694 14.7476 13.0694H9.92017C9.83633 13.0694 9.78743 13.1113 9.78743 13.1882V14.1592C9.78743 14.2361 9.82935 14.278 9.92017 14.278H14.7476C15.3833 14.278 15.9632 14.1243 16.5011 13.8099C17.039 13.5026 17.4582 13.0764 17.7726 12.5455C18.0869 12.0075 18.2406 11.4277 18.2406 10.7989C18.2406 10.1632 18.0869 9.58334 17.7726 9.0524C17.4582 8.52145 17.039 8.0953 16.5011 7.78791C15.9632 7.48052 15.3833 7.31984 14.7476 7.31984H14.531C14.3144 6.39069 13.8254 5.6292 13.0639 5.03538C12.3094 4.44156 11.4362 4.14815 10.4581 4.14815C9.47306 4.14815 8.59979 4.45554 7.83831 5.07031C7.07682 5.68509 6.59478 6.46754 6.39218 7.42463C5.79138 7.56436 5.26043 7.85079 4.79935 8.28393C4.33827 8.71706 4.0169 9.23404 3.83527 9.82786V9.8558V9.9047Z" fill="black"/>
</svg>
